<?xml version="1.0" encoding="utf-8"?>
<!-- Generator: Adobe Illustrator 21.0.2, SVG Export Plug-In . SVG Version: 6.00 Build 0)  -->
<svg version="1.1" id="Layer_1" xmlns="http://www.w3.org/2000/svg" xmlns:xlink="http://www.w3.org/1999/xlink" x="0px" y="0px"
	 viewBox="0 0 111 386" style="enable-background:new 0 0 111 386;" xml:space="preserve">
<style type="text/css">
	.st0{enable-background:new    ;}
	.st1{fill:#252B5F;}
</style>
<title>{</title>
<desc>Created with Sketch.</desc>
<g id="Welcome">
	<g id="About" transform="translate(-226.000000, -3543.000000)">
		<g class="st0">
			<path class="st1" d="M336.1,3928.1h-9.2c-21.3,0-38.2-6.2-50.8-18.7c-12.6-12.5-18.9-29.3-18.9-50.6v-68
				c0-26-10.4-39.1-31.1-39.1v-31.9c20.7,0,31.1-13,31.1-39.1v-68c0-21.3,6.3-38.1,18.9-50.6c12.6-12.5,29.5-18.7,50.8-18.7h9.2
				v31.9h-6.3c-24.9,0-37.4,14.1-37.4,42.4v69.7c-0.3,24.9-9.9,40.7-29,47.5v1.7c18.8,6.2,28.4,21.6,29,46.2v71
				c0,28.3,12.5,42.4,37.4,42.4h6.3V3928.1z"/>
		</g>
	</g>
</g>
</svg>
