<?xml version="1.0" encoding="utf-8"?>
<!-- Generator: Adobe Illustrator 21.0.2, SVG Export Plug-In . SVG Version: 6.00 Build 0)  -->
<svg version="1.1" id="Layer_1" xmlns="http://www.w3.org/2000/svg" xmlns:xlink="http://www.w3.org/1999/xlink" x="0px" y="0px"
	 viewBox="0 0 235.8 317.9" style="enable-background:new 0 0 235.8 317.9;" xml:space="preserve">
<style type="text/css">
	.st0{fill:#252B5F;}
	.st1{fill:#FFFFFF;}
	.st2{fill:#FFFFFF;stroke:#252B5F;stroke-width:5;stroke-miterlimit:10;}
</style>
<g>
	<g>
		<path class="st0" d="M85.6,73.3c5.3,0,9.6-4.3,9.6-9.6S90.9,54,85.6,54S76,58.3,76,63.6l-18.5,5c-1.1-1.9-2.8-3.3-4.8-4.1L54.4,49
			c3.6-0.8,6.4-4,6.4-7.8c0-4.4-3.6-8-8-8s-8,3.6-8,8c0,3.2,1.9,6,4.7,7.3L47.8,64c-4.6,0.7-8.1,4.7-8.1,9.5c0,3.9,2.3,7.2,5.6,8.7
			L42.5,99c-2.7,0.1-5.2,1.1-7.1,2.7L14.6,85c0.3-0.8,0.4-1.6,0.4-2.5c0-4.1-3.4-7.5-7.5-7.5S0,78.4,0,82.5S3.4,90,7.5,90
			c1.4,0,2.8-0.4,3.9-1.1l20.7,16.8c-0.8,1.6-1.3,3.5-1.3,5.5c0,6.7,5.4,12.2,12.1,12.2S55,118,55,111.2c0-1.1-0.2-2.1-0.4-3.1
			l11.8-6c2.1,2.6,5.4,4.3,9,4.3c0.2,0,0.4,0,0.6,0l4.9,18l4.8-1.3l-4.9-18c3.7-1.9,6.2-5.8,6.2-10.3c0-4.3-2.3-8-5.8-10l3.6-11.3
			C85,73.3,85.3,73.3,85.6,73.3z M52.3,103.5c-1.3-1.6-3-2.9-5-3.7L50.1,83c1.8-0.2,3.4-0.8,4.7-1.8L65,89.4
			c-0.8,1.6-1.2,3.3-1.2,5.2c0,1,0.1,1.9,0.4,2.9L52.3,103.5z M76.4,83.1c-0.3,0-0.7-0.1-1-0.1c-2.7,0-5.3,1-7.2,2.6L58,77.4
			c0.5-1.2,0.8-2.5,0.8-3.9l18.5-5c0.7,1.2,1.6,2.2,2.8,3L76.4,83.1z"/>
	</g>
</g>
<g>
	<g>
		<path class="st0" d="M218.9,47.6c-4.5,0-8.2,3.7-8.2,8.2c0,2,0.7,3.8,1.9,5.2l-11.5,18.2c-0.9-0.3-1.9-0.4-2.9-0.4
			c-3.8,0-7,2.2-8.6,5.4l-18-3.5c-0.3-5-4.5-8.9-9.6-8.9c-5.3,0-9.6,4.3-9.6,9.6s4.3,9.6,9.6,9.6c0.8,0,1.5-0.1,2.2-0.3l8.1,14.9
			c-2.6,2.2-4.2,5.5-4.2,9.1c0,6.7,5.4,12.1,12.1,12.1s12.1-5.4,12.1-12.1c0-3.3-1.3-6.2-3.4-8.4l6.1-8.9c1,0.4,2.1,0.6,3.2,0.6
			c5.3,0,9.6-4.3,9.6-9.6c0-2.5-1-4.8-2.5-6.5l11.5-18.2c0.7,0.2,1.4,0.3,2.1,0.3c4.5,0,8.2-3.7,8.2-8.2
			C227.1,51.3,223.4,47.6,218.9,47.6z M184.8,103.5c-1.4-0.6-3-0.9-4.6-0.9c-1.2,0-2.4,0.2-3.5,0.5l-8.1-14.8c0.8-0.8,1.5-1.7,2-2.7
			l18,3.5c0.1,2.1,1,4,2.3,5.5L184.8,103.5z"/>
	</g>
</g>
<g>
	<g>
		<path class="st0" d="M164.3,72.1L163.8,54c3.5-1.3,6.1-4.6,6.1-8.5c0-4.9-3.9-8.7-8.8-8.7c-0.6,0-1.2,0.1-1.8,0.2l-12.7-24
			c1.3-1.4,2.1-3.2,2.1-5.3c0-4.3-3.4-7.7-7.7-7.7s-7.7,3.4-7.7,7.7s3.4,7.7,7.7,7.7c0.4,0,0.8,0,1.2-0.1l12.7,24
			c-1.6,1.6-2.6,3.8-2.6,6.2c0,0.5,0,0.9,0.1,1.4L128,58.4c-1.8-2.1-4.4-3.4-7.3-3.4c-1.3,0-2.5,0.3-3.7,0.7l-10.1-13.1
			c0.8-1.2,1.2-2.6,1.2-4.1c0-4.1-3.4-7.5-7.5-7.5c-4.1,0-7.5,3.4-7.5,7.5c0,1.8,0.6,3.5,1.7,4.8l-6.7,11.1
			c-0.8-0.2-1.6-0.4-2.5-0.4c-5.3,0-9.6,4.4-9.6,9.8c0,5.4,4.3,9.8,9.6,9.8c4.5,0,8.2-3.1,9.3-7.3l16.4,0.6c0.8,3.3,3.2,6,6.4,7
			l-1,21.6c-3.8,0.6-7,2.9-8.8,6.2l-31.8-9.8l-1.5,4.8l31.8,9.7c0,0.4-0.1,0.8-0.1,1.2c0,4.9,2.9,9.1,7.1,11l-1.2,4.9l4.9,1.2
			l1.2-4.9h0.4c6.8,0,12.3-5.5,12.3-12.2c0-1.5-0.3-2.9-0.7-4.1l24.9-15.2c1.7,1.7,4.1,2.8,6.8,2.8c5.3,0,9.6-4.3,9.6-9.6
			C171.6,76.9,168.5,73.1,164.3,72.1z M111.6,61.8l-16.7-0.6c-0.4-1.6-1.3-3.1-2.4-4.3l6.6-11c0.5,0.1,1,0.2,1.5,0.2
			c0.8,0,1.6-0.1,2.3-0.4l10.2,13.1C112.4,59.7,111.9,60.7,111.6,61.8z M127.7,99c-1.6-1.7-3.6-2.9-5.9-3.5l1-21.6
			c2.3-0.5,4.2-1.8,5.6-3.6l24.1,9.5c-0.1,0.5-0.1,1-0.1,1.6c0,0.8,0.1,1.6,0.3,2.3L127.7,99z M154.6,75.3l-24.3-9.6
			c0-0.4,0.1-0.7,0.1-1.1c0-0.6-0.1-1.2-0.2-1.7l24.4-11.5c1.1,1.2,2.6,2.2,4.3,2.6l0.5,18.2C157.5,72.7,155.8,73.8,154.6,75.3z"/>
	</g>
</g>
<title>DotHead_Logo_Outline</title>
<rect y="121.9" class="st1" width="235.8" height="196"/>
<path class="st2" d="M55.1,315.4h77.5c0,0,3.3-6.5,8.8-8.8s38,0.6,44.5,1s7.5,1,13.1-3s5.9-8.5,6.9-13.4s-1.6-10.5,1.6-14.1
	s6.9-2.6,9.5-5.9s5.9-9.2,2-13.1s-5.9-5.6-5.9-5.6s6.9-0.6,10.5-4.9s-0.3-6.6-2-10.5c-2.3-5.2-3.5-10.7-3.6-16.4
	c0,0,12.8-7.2,15.1-14.1c0,0-19.3-42.2-20.6-54.7v-27.5H18.3c0,0-3.6,46.8,2.3,71.4s25.9,64.2,28.1,75S55.1,315.4,55.1,315.4z"/>
</svg>
