<svg id="Layer_1" data-name="Layer 1" xmlns="http://www.w3.org/2000/svg" viewBox="0 0 235.77 317.86"><defs><style>.cls-1{fill:#232323;}.cls-1,.cls-2{stroke:#252b5f;stroke-miterlimit:10;stroke-width:5px;}.cls-2{fill:none;}.cls-3{fill:#252b5f;}</style></defs><title>DotHead_Logo_Outline</title><line class="cls-1" x1="85.04" y1="63.95" x2="75.43" y2="94.41"/><polyline class="cls-2" points="7.52 82.3 42.86 110.8 75.42 94.41 49.24 73.26 83.35 64.75 120.72 64.75 161.08 45.63 162 81.3 198.24 88.39 181.76 113 163.34 84.43"/><polyline class="cls-2" points="122.08 67.29 162 81.3 118.69 107.84"/><line class="cls-1" x1="74.46" y1="96.49" x2="83.35" y2="123.16"/><line class="cls-1" x1="52.79" y1="41.19" x2="49.24" y2="73.26"/><line class="cls-1" x1="48.64" y1="75.55" x2="43.85" y2="107.77"/><polyline class="cls-2" points="85.55 63.48 100.64 38.68 120.72 64.75 118.69 107.84 75.42 94.41"/><line class="cls-2" x1="141.02" y1="7.68" x2="161.08" y2="45.63"/><line class="cls-2" x1="218.93" y1="55.81" x2="198.24" y2="88.39"/><circle class="cls-3" cx="120.72" cy="64.75" r="9.62"/><circle class="cls-3" cx="52.79" cy="41.19" r="8.01"/><circle class="cls-3" cx="7.52" cy="82.3" r="7.52"/><circle class="cls-3" cx="49.24" cy="73.26" r="9.62"/><circle class="cls-3" cx="42.86" cy="110.8" r="12.1"/><circle class="cls-3" cx="75.43" cy="94.41" r="11.58"/><circle class="cls-3" cx="118.69" cy="107.84" r="12.28"/><circle class="cls-3" cx="180.22" cy="114.69" r="12.15"/><circle class="cls-3" cx="85.55" cy="63.48" r="9.62"/><circle class="cls-3" cx="100.64" cy="38.68" r="7.48"/><circle class="cls-3" cx="161.99" cy="81.3" r="9.62"/><circle class="cls-3" cx="198.24" cy="88.39" r="9.62"/><circle class="cls-3" cx="218.93" cy="55.81" r="8.17"/><circle class="cls-3" cx="161.08" cy="45.63" r="8.81"/><circle class="cls-3" cx="141.02" cy="7.68" r="7.68"/><path class="cls-2" d="M55.12,315.36h77.47s3.27-6.48,8.84-8.78,38,.65,44.52,1,7.53,1,13.09-2.95,5.89-8.51,6.87-13.42-1.64-10.48,1.64-14.08,6.87-2.62,9.49-5.89,5.89-9.17,2-13.09-5.89-5.57-5.89-5.57,6.87-.65,10.48-4.91-.33-6.55-2-10.48a41.84,41.84,0,0,1-3.6-16.37s12.77-7.2,15.06-14.08c0,0-19.31-42.23-20.62-54.67v-27.5H18.34s-3.6,46.81,2.29,71.36,25.86,64.16,28.15,75S55.12,315.36,55.12,315.36Z"/><line class="cls-1" x1="118.46" y1="106.56" x2="117.09" y2="125.83"/></svg>