<?xml version="1.0" encoding="utf-8"?>
<!-- Generator: Adobe Illustrator 21.0.2, SVG Export Plug-In . SVG Version: 6.00 Build 0)  -->
<svg version="1.1" id="Layer_1" xmlns="http://www.w3.org/2000/svg" xmlns:xlink="http://www.w3.org/1999/xlink" x="0px" y="0px"
	 viewBox="0 0 1143.2 345.4" style="enable-background:new 0 0 1143.2 345.4;" xml:space="preserve">
<style type="text/css">
	.st0{fill:#FFFFFF;}
	.st1{fill:none;stroke:#D1D1D1;stroke-miterlimit:10;}
	.st2{fill:url(#SVGID_1_);stroke:#D1D1D1;stroke-miterlimit:10;}
	.st3{fill:url(#SVGID_2_);stroke:#D1D1D1;stroke-miterlimit:10;}
	.st4{fill:none;stroke:#D1D1D1;stroke-width:5;stroke-linejoin:round;}
	.st5{fill:url(#SVGID_3_);stroke:#D1D1D1;stroke-miterlimit:10;}
	.st6{fill:url(#SVGID_4_);stroke:#D1D1D1;stroke-miterlimit:10;}
	.st7{fill:#D1D1D1;stroke:#D1D1D1;stroke-miterlimit:10;}
	.st8{fill:#D1D1D1;stroke:#D1D1D1;stroke-width:5;stroke-linejoin:round;}
	.st9{fill:none;stroke:#D1D1D1;stroke-width:5;stroke-linecap:round;stroke-linejoin:round;}
</style>
<rect class="st0" width="1143.2" height="345.4"/>
<title>gray_logo</title>
<g>
	<g>
		<line class="st1" x1="245.6" y1="313" x2="245.4" y2="312.2"/>
	</g>
	<g>
		<line class="st1" x1="245.6" y1="313" x2="245.4" y2="312.2"/>
	</g>
</g>
<g>
	<g>
		<line class="st1" x1="245.6" y1="313" x2="245.4" y2="312.2"/>
	</g>
	<g>
		<line class="st1" x1="245.6" y1="313" x2="245.4" y2="312.2"/>
	</g>
</g>
<g>
	<g>
		
			<linearGradient id="SVGID_1_" gradientUnits="userSpaceOnUse" x1="1084.5602" y1="2419.6611" x2="1084.8102" y2="2419.6611" gradientTransform="matrix(0.866 0.5 -0.5 0.866 567.2186 -2260.0256)">
			<stop  offset="0" style="stop-color:#F9D801;stop-opacity:0.5"/>
			<stop  offset="0.11" style="stop-color:#F9B301;stop-opacity:0.67"/>
			<stop  offset="0.3" style="stop-color:#F86B00"/>
			<stop  offset="0.64" style="stop-color:#F50C00"/>
			<stop  offset="0.96" style="stop-color:#9C14B9"/>
		</linearGradient>
		<path class="st2" d="M296.7,377.8l-0.1-0.2v0.1L296.7,377.8L296.7,377.8z"/>
	</g>
	<g>
		<path class="st1" d="M296.7,377.8l-0.1-0.2v0.1L296.7,377.8L296.7,377.8z"/>
	</g>
</g>
<g>
	<g>
		
			<linearGradient id="SVGID_2_" gradientUnits="userSpaceOnUse" x1="1084.4402" y1="2406.6731" x2="1104.5804" y2="2406.6731" gradientTransform="matrix(0.866 0.5 -0.5 0.866 567.2186 -2260.0256)">
			<stop  offset="0" style="stop-color:#F9D801;stop-opacity:0.5"/>
			<stop  offset="0.11" style="stop-color:#F9B301;stop-opacity:0.67"/>
			<stop  offset="0.3" style="stop-color:#F86B00"/>
			<stop  offset="0.64" style="stop-color:#F50C00"/>
			<stop  offset="0.96" style="stop-color:#9C14B9"/>
		</linearGradient>
		<path class="st3" d="M327.2,364.8c-22.4,7.5-28.8,11.5-30.5,12.9v0.1c-0.1,0-0.2,0.2-0.3,0.3l0.5-0.2"/>
	</g>
	<g>
		<path class="st1" d="M327.2,364.8c-22.4,7.5-28.8,11.5-30.5,12.9v0.1c-0.1,0-0.2,0.2-0.3,0.3l0.5-0.2"/>
	</g>
</g>
<g>
	<g>
		<g>
			<path class="st4" d="M332.1,267.6c-2-1.1-10.1,3.5-15.8,14c-3.2,5.9-7.4,17-9,26.3c7.3-4.7,15.1-12.2,20.4-19.7
				C337.6,274.1,334.1,268.8,332.1,267.6z"/>
			<path class="st4" d="M329.2,302.7c-2.4-1.4-8.9,1.4-6.2,7.9c1.8,4.1,2.8,6.9,3.5,9.6c1.1-1.2,2.2-2.6,2.9-3.8
				C332.3,311.4,331.6,304.1,329.2,302.7z"/>
			<path class="st4" d="M326.5,320.2c0.4,1.5,0.6,3,0.7,4.7c0.5,4.7-1.8,8.4-4.7,12.4c-3.6,4.8-12.9,8.8-23.8,21.7
				c-2.7,3.2-10.1,15.3-10.1,15.3"/>
			<path class="st4" d="M326.5,320.2c1.1-1.2,2.2-2.6,2.9-3.8c3-5.1,2.3-12.3-0.2-13.7c-2.4-1.4-8.9,1.4-6.2,7.9
				C324.8,314.8,325.8,317.5,326.5,320.2"/>
			<path class="st4" d="M326.5,320.2c-3.7,3.8-9.4,6.6-16,3.1c-3.8-2-4.2-8.2-3-15.4"/>
			<path class="st4" d="M307.5,308c-6.2,4-12.2,6-15.8,4.2c-8.6-4.5-1.2-23.9-1.2-23.9c-12,13-14.8,9.2-19.9,17.7
				c-4.2,6.8-0.1,16.1-6.3,32.4c-4.9,12.7-8.6,17.9-7.5,18.8"/>
			<path class="st4" d="M307.5,308c7.3-4.7,15.1-12.2,20.4-19.7c9.7-14,6.3-19.5,4.3-20.6s-10.1,3.5-15.8,14
				C313.2,287.5,309,298.6,307.5,308"/>
		</g>
	</g>
</g>
<g>
	<g>
		<line class="st1" x1="245.8" y1="313.5" x2="245.7" y2="312.7"/>
	</g>
	<g>
		<line class="st1" x1="245.8" y1="313.5" x2="245.7" y2="312.7"/>
	</g>
</g>
<g>
	<g>
		<line class="st1" x1="245.8" y1="313.5" x2="245.7" y2="312.7"/>
	</g>
	<g>
		<line class="st1" x1="245.8" y1="313.5" x2="245.7" y2="312.7"/>
	</g>
</g>
<g>
	<g>
		
			<radialGradient id="SVGID_3_" cx="1085.2045" cy="2419.908" r="9.329879e-02" gradientTransform="matrix(0.866 0.5 -0.5 0.866 567.2186 -2260.0256)" gradientUnits="userSpaceOnUse">
			<stop  offset="0" style="stop-color:#FFF6E9;stop-opacity:0.95"/>
			<stop  offset="0.34" style="stop-color:#FFF9F1;stop-opacity:0.69"/>
			<stop  offset="1" style="stop-color:#FFFFFF;stop-opacity:0.2"/>
		</radialGradient>
		<path class="st5" d="M297,378.3l-0.1-0.2v0.1L297,378.3L297,378.3z"/>
	</g>
	<g>
		<path class="st1" d="M297,378.3l-0.1-0.2v0.1L297,378.3L297,378.3z"/>
	</g>
</g>
<g>
	<g>
		<line class="st1" x1="327.4" y1="365.4" x2="327.4" y2="365.4"/>
	</g>
</g>
<g>
	<g>
		
			<radialGradient id="SVGID_4_" cx="1085.1204" cy="2420.1128" r="0.2129" gradientTransform="matrix(0.866 0.5 -0.5 0.866 567.2186 -2260.0256)" gradientUnits="userSpaceOnUse">
			<stop  offset="0" style="stop-color:#FFF6E9;stop-opacity:0.95"/>
			<stop  offset="0.34" style="stop-color:#FFF9F1;stop-opacity:0.69"/>
			<stop  offset="1" style="stop-color:#FFFFFF;stop-opacity:0.2"/>
		</radialGradient>
		<path class="st6" d="M297,378.1C296.9,378.2,296.9,378.2,297,378.1c-0.2,0.1-0.3,0.3-0.3,0.4l0.5-0.2"/>
	</g>
	<g>
		<path class="st1" d="M297,378.1C296.9,378.2,296.9,378.2,297,378.1c-0.2,0.1-0.3,0.3-0.3,0.4l0.5-0.2"/>
	</g>
</g>
<g>
	<g>
		<g>
			<path class="st4" d="M249.8,352.8l-0.1-0.4C249.9,352.5,249.9,352.7,249.8,352.8z"/>
			<path class="st4" d="M249.9,352.3c0,0.2,0,0.4,0.1,0.4L249.9,352.3"/>
			<line class="st4" x1="249.9" y1="352.3" x2="249.8" y2="351.9"/>
			<path class="st4" d="M249.9,352.3c-0.2-2.6-0.2-16.1-4.5-38.8"/>
		</g>
	</g>
</g>
<g>
	<g>
		<path class="st4" d="M296.4,378.1c1.7-1.3,8.1-5.2,30.5-12.9h0.1c18.6-6.7,33.1-15.4,42.8-32.2c18.9-32.7,7.7-74.5-25-93.4
			c-32.8-18.8-74.6-7.6-93.5,25.1c-9.8,17-10.4,30.6-6.1,48.8l-0.1-0.8"/>
	</g>
</g>
<g>
	<g>
		<line class="st4" x1="245.3" y1="313.4" x2="245.2" y2="312.7"/>
	</g>
</g>
<g>
	<g>
		<line class="st4" x1="245.3" y1="313.4" x2="245.2" y2="312.7"/>
	</g>
</g>
<g>
	<g>
		<path class="st4" d="M296.5,378.2l-0.1-0.2v0.1L296.5,378.2L296.5,378.2z"/>
	</g>
</g>
<g>
	<g>
		<path class="st4" d="M327,365.2c-22.4,7.5-28.8,11.5-30.5,12.9v0.1c-0.1,0-0.2,0.2-0.3,0.3l0.5-0.2"/>
	</g>
</g>
<g>
	<g>
		<ellipse transform="matrix(0.5 -0.866 0.866 0.5 -90.305 394.8567)" class="st7" cx="296.8" cy="275.6" rx="3.2" ry="3.2"/>
	</g>
	<g>
		<ellipse transform="matrix(0.5 -0.866 0.866 0.5 -90.305 394.8567)" class="st8" cx="296.8" cy="275.6" rx="3.2" ry="3.2"/>
	</g>
</g>
<g>
	<g>
		<path class="st4" d="M303.5,246.5"/>
	</g>
</g>
<line class="st9" x1="347.6" y1="223.8" x2="474.8" y2="-0.9"/>
<line class="st9" x1="377" y1="246.5" x2="664.5" y2="0.8"/>
<line class="st9" x1="391.8" y1="278.8" x2="1159.9" y2="89.8"/>
<line class="st9" x1="391.6" y1="314.3" x2="563.3" y2="356.3"/>
<line class="st9" x1="311.8" y1="216.8" x2="328.2" y2="0"/>
<line class="st9" x1="277" y1="223.3" x2="205.6" y2="-8.8"/>
<line class="st9" x1="249.7" y1="243.5" x2="-16.1" y2="-23"/>
<line class="st9" x1="230.5" y1="275.6" x2="-135.2" y2="184.3"/>
<line class="st9" x1="230.5" y1="313.5" x2="-107.9" y2="339.5"/>
</svg>
