<?xml version="1.0" encoding="utf-8"?>
<!-- Generator: Adobe Illustrator 21.0.2, SVG Export Plug-In . SVG Version: 6.00 Build 0)  -->
<svg version="1.1" id="Layer_1" xmlns="http://www.w3.org/2000/svg" xmlns:xlink="http://www.w3.org/1999/xlink" x="0px" y="0px"
	 viewBox="0 0 1143.2 345.4" style="enable-background:new 0 0 1143.2 345.4;" xml:space="preserve">
<style type="text/css">
	.st0{fill:none;stroke:#D1D1D1;stroke-miterlimit:10;}
	.st1{fill:none;stroke:#D1D1D1;stroke-width:5;stroke-linecap:round;stroke-linejoin:round;}
	.st2{fill:url(#SVGID_1_);stroke:#D1D1D1;stroke-miterlimit:10;}
	.st3{fill:url(#SVGID_2_);stroke:#D1D1D1;stroke-miterlimit:10;}
	.st4{fill:none;stroke:#D1D1D1;stroke-width:5;stroke-linejoin:round;}
	.st5{fill:url(#SVGID_3_);stroke:#D1D1D1;stroke-miterlimit:10;}
	.st6{fill:url(#SVGID_4_);stroke:#D1D1D1;stroke-miterlimit:10;}
	.st7{fill:#D1D1D1;stroke:#D1D1D1;stroke-miterlimit:10;}
	.st8{fill:#D1D1D1;stroke:#D1D1D1;stroke-width:5;stroke-linejoin:round;}
</style>
<title>gray_logo</title>
<g>
	<g>
		<line class="st0" x1="455.7" y1="239.9" x2="455.7" y2="239.9"/>
	</g>
</g>
<path class="st1" d="M-107.9,339.5"/>
<path class="st1" d="M346.2,230"/>
<g>
	<g>
		<line class="st0" x1="363.2" y1="212.3" x2="362.7" y2="211.8"/>
	</g>
	<g>
		<line class="st0" x1="363.2" y1="212.3" x2="362.7" y2="211.8"/>
	</g>
</g>
<g>
	<g>
		<line class="st0" x1="363.2" y1="212.3" x2="362.7" y2="211.8"/>
	</g>
	<g>
		<line class="st0" x1="363.2" y1="212.3" x2="362.7" y2="211.8"/>
	</g>
</g>
<g>
	<g>
		
			<linearGradient id="SVGID_1_" gradientUnits="userSpaceOnUse" x1="439.7361" y1="660.8279" x2="439.9861" y2="660.8279" gradientTransform="matrix(1 0 0 1 0 -418.0279)">
			<stop  offset="0" style="stop-color:#F9D801;stop-opacity:0.5"/>
			<stop  offset="0.11" style="stop-color:#F9B301;stop-opacity:0.67"/>
			<stop  offset="0.3" style="stop-color:#F86B00"/>
			<stop  offset="0.64" style="stop-color:#F50C00"/>
			<stop  offset="0.96" style="stop-color:#9C14B9"/>
		</linearGradient>
		<path class="st2" d="M439.9,242.8l-0.2-0.1v0.1H439.9L439.9,242.8z"/>
	</g>
	<g>
		<path class="st0" d="M439.9,242.8l-0.2-0.1v0.1H439.9L439.9,242.8z"/>
	</g>
</g>
<g>
	<g>
		
			<linearGradient id="SVGID_2_" gradientUnits="userSpaceOnUse" x1="439.6161" y1="647.8279" x2="459.756" y2="647.8279" gradientTransform="matrix(1 0 0 1 0 -418.0279)">
			<stop  offset="0" style="stop-color:#F9D801;stop-opacity:0.5"/>
			<stop  offset="0.11" style="stop-color:#F9B301;stop-opacity:0.67"/>
			<stop  offset="0.3" style="stop-color:#F86B00"/>
			<stop  offset="0.64" style="stop-color:#F50C00"/>
			<stop  offset="0.96" style="stop-color:#9C14B9"/>
		</linearGradient>
		<path class="st3" d="M459.8,216.3c-15.6,17.7-19.2,24.4-20,26.4v0.1c-0.1,0.1-0.1,0.3-0.1,0.4l0.3-0.4"/>
	</g>
	<g>
		<path class="st0" d="M459.8,216.3c-15.6,17.7-19.2,24.4-20,26.4v0.1c-0.1,0.1-0.1,0.3-0.1,0.4l0.3-0.4"/>
	</g>
</g>
<g>
	<g>
		<g>
			<path class="st4" d="M415.5,129.8c-2.3,0-7,8.1-6.7,20c0.2,6.7,2.1,18.4,5.4,27.3c4-7.7,7-18.1,7.8-27.3
				C423.5,132.6,417.8,129.8,415.5,129.8z"/>
			<path class="st4" d="M430.5,161.6c-2.8,0-7,5.7-1.4,9.9c3.6,2.7,5.9,4.6,7.8,6.6c0.4-1.6,0.6-3.3,0.6-4.7
				C437.5,167.6,433.3,161.6,430.5,161.6z"/>
			<path class="st4" d="M436.9,178.1c1.1,1.1,2,2.3,3,3.7c2.8,3.8,2.6,8.2,2.1,13.1c-0.7,6-6.8,14.1-9.7,30.7
				c-0.7,4.1-1.1,18.3-1.1,18.3"/>
			<path class="st4" d="M436.9,178.1c0.4-1.6,0.6-3.3,0.6-4.7c0-5.9-4.2-11.8-7-11.8c-2.8,0-7,5.7-1.4,9.9
				C432.7,174.2,435,176.1,436.9,178.1"/>
			<path class="st4" d="M436.9,178.1c-1.3,5.1-4.9,10.4-12.3,10.7c-4.3,0.2-7.7-5-10.3-11.8"/>
			<path class="st4" d="M414.3,177.1c-3.4,6.6-7.6,11.3-11.6,11.5c-9.7,0.4-13-20.1-13-20.1c-3.9,17.3-8.2,15.4-8.4,25.3
				c-0.2,8,8,14,10.7,31.2c2.1,13.4,1.5,19.8,2.9,20"/>
			<path class="st4" d="M414.3,177.1c4-7.7,7-18.1,7.8-27.3c1.4-17-4.3-20-6.6-20c-2.3,0-7,8.1-6.7,20
				C409,156.4,410.9,168.1,414.3,177.1"/>
		</g>
	</g>
</g>
<g>
	<g>
		<line class="st0" x1="363.7" y1="212.6" x2="363.2" y2="212.1"/>
	</g>
	<g>
		<line class="st0" x1="363.7" y1="212.6" x2="363.2" y2="212.1"/>
	</g>
</g>
<g>
	<g>
		<line class="st0" x1="363.7" y1="212.6" x2="363.2" y2="212.1"/>
	</g>
	<g>
		<line class="st0" x1="363.7" y1="212.6" x2="363.2" y2="212.1"/>
	</g>
</g>
<g>
	<g>
		
			<radialGradient id="SVGID_3_" cx="440.3803" cy="661.1539" r="9.329879e-02" gradientTransform="matrix(1 0 0 1 0 -418.0279)" gradientUnits="userSpaceOnUse">
			<stop  offset="0" style="stop-color:#FFF6E9;stop-opacity:0.95"/>
			<stop  offset="0.34" style="stop-color:#FFF9F1;stop-opacity:0.69"/>
			<stop  offset="1" style="stop-color:#FFFFFF;stop-opacity:0.2"/>
		</radialGradient>
		<path class="st5" d="M440.4,243.1l-0.2-0.1v0.1H440.4L440.4,243.1z"/>
	</g>
	<g>
		<path class="st0" d="M440.4,243.1l-0.2-0.1v0.1H440.4L440.4,243.1z"/>
	</g>
</g>
<g>
	<g>
		<line class="st0" x1="460.3" y1="216.8" x2="460.3" y2="216.8"/>
	</g>
</g>
<g>
	<g>
		
			<radialGradient id="SVGID_4_" cx="440.2961" cy="661.3589" r="0.2129" gradientTransform="matrix(1 0 0 1 0 -418.0279)" gradientUnits="userSpaceOnUse">
			<stop  offset="0" style="stop-color:#FFF6E9;stop-opacity:0.95"/>
			<stop  offset="0.34" style="stop-color:#FFF9F1;stop-opacity:0.69"/>
			<stop  offset="1" style="stop-color:#FFFFFF;stop-opacity:0.2"/>
		</radialGradient>
		<path class="st6" d="M440.3,243C440.3,243.1,440.3,243.1,440.3,243c-0.1,0.2-0.1,0.4-0.1,0.5l0.3-0.4"/>
	</g>
	<g>
		<path class="st0" d="M440.3,243C440.3,243.1,440.3,243.1,440.3,243c-0.1,0.2-0.1,0.4-0.1,0.5l0.3-0.4"/>
	</g>
</g>
<g>
	<g>
		<g>
			<path class="st4" d="M386.8,244.6l-0.3-0.3C386.7,244.4,386.8,244.5,386.8,244.6z"/>
			<path class="st4" d="M386.6,244.2c0.1,0.2,0.2,0.3,0.3,0.3L386.6,244.2"/>
			<line class="st4" x1="386.6" y1="244.2" x2="386.3" y2="243.9"/>
			<path class="st4" d="M386.6,244.2c-1.5-2.1-8.2-13.9-23.3-31.4"/>
		</g>
	</g>
</g>
<g>
	<g>
		<path class="st4" d="M439.8,243.2c0.8-2,4.4-8.6,20-26.4l0.1-0.1c12.8-15.1,21-29.9,21-49.3c0-37.8-30.6-68.4-68.4-68.4
			c-37.8,0.1-68.4,30.7-68.4,68.5c0,19.6,6.3,31.7,19.1,45.3l-0.5-0.6"/>
	</g>
</g>
<g>
	<g>
		<line class="st4" x1="363.2" y1="212.8" x2="362.7" y2="212.2"/>
	</g>
</g>
<g>
	<g>
		<line class="st4" x1="363.2" y1="212.8" x2="362.7" y2="212.2"/>
	</g>
</g>
<g>
	<g>
		<path class="st4" d="M439.9,243.3l-0.2-0.1v0.1H439.9L439.9,243.3z"/>
	</g>
</g>
<g>
	<g>
		<path class="st4" d="M459.8,216.8c-15.6,17.7-19.2,24.4-20,26.4v0.1c-0.1,0.1-0.1,0.3-0.1,0.4l0.3-0.4"/>
	</g>
</g>
<g>
	<g>
		<circle class="st7" cx="389" cy="154.2" r="3.2"/>
	</g>
	<g>
		<circle class="st8" cx="389" cy="154.2" r="3.2"/>
	</g>
</g>
<g>
	<g>
		<path class="st4" d="M380.1,125.8"/>
	</g>
</g>
<g>
	<g>
		<path class="st1" d="M441.7,286.4c-2.6-2.8-4.6-3-4.6-3c-18.2-6.2-50-5.8-50-5.8c14.1-4.2,52.5-6.8,52.5-6.8
			c-2.9-4.2-53.5-2.4-53.5-2.4c3.2-4.2,55.7-9.5,55.7-9.5c-6.3-5.7-56.2-2.8-56.2-2.8c4.1-4.5,61.1-10.7,61.1-10.7
			s-64.3,0.9-66.8-0.2c-2.1-0.9-2.4-0.6-5-4.1"/>
	</g>
</g>
</svg>
