<?xml version="1.0" encoding="utf-8"?>
<!-- Generator: Adobe Illustrator 21.0.2, SVG Export Plug-In . SVG Version: 6.00 Build 0)  -->
<svg version="1.1" id="Layer_1" xmlns="http://www.w3.org/2000/svg" xmlns:xlink="http://www.w3.org/1999/xlink" x="0px" y="0px"
	 viewBox="0 0 141.8 192.2" style="enable-background:new 0 0 141.8 192.2;" xml:space="preserve">
<style type="text/css">
	.st0{fill:url(#SVGID_1_);}
	.st1{fill:none;stroke:#292929;stroke-miterlimit:10;}
	.st2{fill:url(#SVGID_2_);}
	.st3{fill:url(#SVGID_3_);}
	.st4{fill:url(#SVGID_4_);}
	.st5{fill:none;stroke:#292929;stroke-width:5;stroke-linejoin:round;}
	.st6{fill:url(#SVGID_5_);}
	.st7{fill:url(#SVGID_6_);}
	.st8{fill:url(#SVGID_7_);}
	.st9{fill:url(#SVGID_8_);}
	.st10{fill:#292929;}
	.st11{fill:none;stroke:#292929;stroke-width:5;stroke-linecap:round;stroke-linejoin:round;}
</style>
<title>gray_logo</title>
<g>
	<g>
		
			<linearGradient id="SVGID_1_" gradientUnits="userSpaceOnUse" x1="21.07" y1="78.6111" x2="21.6" y2="78.6111" gradientTransform="matrix(1 0 0 -1 0 193.9721)">
			<stop  offset="0" style="stop-color:#F9D801;stop-opacity:0.5"/>
			<stop  offset="0.11" style="stop-color:#F9B301;stop-opacity:0.67"/>
			<stop  offset="0.3" style="stop-color:#F86B00"/>
			<stop  offset="0.64" style="stop-color:#F50C00"/>
			<stop  offset="0.96" style="stop-color:#9C14B9"/>
		</linearGradient>
		<line class="st0" x1="21.6" y1="115.7" x2="21.1" y2="115.1"/>
	</g>
	<g>
		<line class="st1" x1="21.6" y1="115.7" x2="21.1" y2="115.1"/>
	</g>
</g>
<g>
	<g>
		
			<linearGradient id="SVGID_2_" gradientUnits="userSpaceOnUse" x1="21.07" y1="78.6111" x2="21.6" y2="78.6111" gradientTransform="matrix(1 0 0 -1 0 193.9721)">
			<stop  offset="0" style="stop-color:#F9D801;stop-opacity:0.5"/>
			<stop  offset="0.11" style="stop-color:#F9B301;stop-opacity:0.67"/>
			<stop  offset="0.3" style="stop-color:#F86B00"/>
			<stop  offset="0.64" style="stop-color:#F50C00"/>
			<stop  offset="0.96" style="stop-color:#9C14B9"/>
		</linearGradient>
		<line class="st2" x1="21.6" y1="115.7" x2="21.1" y2="115.1"/>
	</g>
	<g>
		<line class="st1" x1="21.6" y1="115.7" x2="21.1" y2="115.1"/>
	</g>
</g>
<g>
	<g>
		
			<linearGradient id="SVGID_3_" gradientUnits="userSpaceOnUse" x1="98.16" y1="47.8461" x2="98.41" y2="47.8461" gradientTransform="matrix(1 0 0 -1 0 193.9721)">
			<stop  offset="0" style="stop-color:#F9D801;stop-opacity:0.5"/>
			<stop  offset="0.11" style="stop-color:#F9B301;stop-opacity:0.67"/>
			<stop  offset="0.3" style="stop-color:#F86B00"/>
			<stop  offset="0.64" style="stop-color:#F50C00"/>
			<stop  offset="0.96" style="stop-color:#9C14B9"/>
		</linearGradient>
		<path class="st3" d="M98.3,146.2l-0.2-0.1c0,0,0,0.1,0,0.1L98.3,146.2L98.3,146.2z"/>
	</g>
	<g>
		<path class="st1" d="M98.3,146.2l-0.2-0.1c0,0,0,0.1,0,0.1L98.3,146.2L98.3,146.2z"/>
	</g>
</g>
<g>
	<g>
		
			<linearGradient id="SVGID_4_" gradientUnits="userSpaceOnUse" x1="98.04" y1="60.8261" x2="118.18" y2="60.8261" gradientTransform="matrix(1 0 0 -1 0 193.9721)">
			<stop  offset="0" style="stop-color:#F9D801;stop-opacity:0.5"/>
			<stop  offset="0.11" style="stop-color:#F9B301;stop-opacity:0.67"/>
			<stop  offset="0.3" style="stop-color:#F86B00"/>
			<stop  offset="0.64" style="stop-color:#F50C00"/>
			<stop  offset="0.96" style="stop-color:#9C14B9"/>
		</linearGradient>
		<path class="st4" d="M118.2,119.7c-15.6,17.7-19.2,24.4-20,26.4c0,0,0,0.1,0,0.1c-0.1,0.1-0.1,0.3-0.1,0.4l0.3-0.4"/>
	</g>
	<g>
		<path class="st1" d="M118.2,119.7c-15.6,17.7-19.2,24.4-20,26.4c0,0,0,0.1,0,0.1c-0.1,0.1-0.1,0.3-0.1,0.4l0.3-0.4"/>
	</g>
</g>
<g>
	<g>
		<g>
			<path class="st5" d="M73.9,33.1c-2.3,0-7,8.1-6.7,20c0.2,6.7,2.1,18.4,5.4,27.3c4-7.7,7-18.1,7.8-27.3
				C81.9,36,76.2,33.1,73.9,33.1z"/>
			<path class="st5" d="M88.9,65c-2.8,0-7,5.7-1.4,9.9c3.6,2.7,5.9,4.6,7.8,6.6c0.4-1.6,0.6-3.3,0.6-4.7C95.9,70.9,91.7,65,88.9,65z
				"/>
			<path class="st5" d="M95.3,81.5c1.1,1.1,2,2.3,3,3.7c2.8,3.8,2.6,8.2,2.1,13.1c-0.7,6-6.8,14.1-9.7,30.7
				c-0.7,4.1-1.1,18.3-1.1,18.3"/>
			<path class="st5" d="M95.3,81.5c0.4-1.6,0.6-3.3,0.6-4.7c0-5.9-4.2-11.8-7-11.8c-2.8,0-7,5.7-1.4,9.9
				C91.1,77.6,93.4,79.5,95.3,81.5"/>
			<path class="st5" d="M95.3,81.5C94,86.6,90.4,91.9,83,92.2c-4.3,0.2-7.7-5-10.3-11.8"/>
			<path class="st5" d="M72.7,80.4c-3.4,6.6-7.6,11.3-11.6,11.5c-9.7,0.4-13-20.1-13-20.1c-3.9,17.3-8.2,15.4-8.4,25.3
				c-0.2,8,8,14,10.7,31.2c2.1,13.4,1.5,19.8,2.9,20"/>
			<path class="st5" d="M72.7,80.4c4-7.7,7-18.1,7.8-27.3c1.4-17-4.3-20-6.6-20s-7,8.1-6.7,20C67.4,59.8,69.3,71.5,72.7,80.4"/>
		</g>
	</g>
</g>
<g>
	<g>
		
			<radialGradient id="SVGID_5_" cx="21.855" cy="78.2811" r="0.2804" gradientTransform="matrix(1 0 0 -1 0 193.9721)" gradientUnits="userSpaceOnUse">
			<stop  offset="0" style="stop-color:#FFF6E9;stop-opacity:0.95"/>
			<stop  offset="0.34" style="stop-color:#FFF9F1;stop-opacity:0.69"/>
			<stop  offset="1" style="stop-color:#FFFFFF;stop-opacity:0.2"/>
		</radialGradient>
		<line class="st6" x1="22.1" y1="116" x2="21.6" y2="115.4"/>
	</g>
	<g>
		<line class="st1" x1="22.1" y1="116" x2="21.6" y2="115.4"/>
	</g>
</g>
<g>
	<g>
		
			<radialGradient id="SVGID_6_" cx="21.855" cy="78.2811" r="0.2804" gradientTransform="matrix(1 0 0 -1 0 193.9721)" gradientUnits="userSpaceOnUse">
			<stop  offset="0" style="stop-color:#FFF6E9;stop-opacity:0.95"/>
			<stop  offset="0.34" style="stop-color:#FFF9F1;stop-opacity:0.69"/>
			<stop  offset="1" style="stop-color:#FFFFFF;stop-opacity:0.2"/>
		</radialGradient>
		<line class="st7" x1="22.1" y1="116" x2="21.6" y2="115.4"/>
	</g>
	<g>
		<line class="st1" x1="22.1" y1="116" x2="21.6" y2="115.4"/>
	</g>
</g>
<g>
	<g>
		
			<radialGradient id="SVGID_7_" cx="98.8043" cy="47.4961" r="9.329879e-02" gradientTransform="matrix(1 0 0 -1 0 193.9721)" gradientUnits="userSpaceOnUse">
			<stop  offset="0" style="stop-color:#FFF6E9;stop-opacity:0.95"/>
			<stop  offset="0.34" style="stop-color:#FFF9F1;stop-opacity:0.69"/>
			<stop  offset="1" style="stop-color:#FFFFFF;stop-opacity:0.2"/>
		</radialGradient>
		<path class="st8" d="M98.8,146.5l-0.2-0.1c0,0,0,0.1,0,0.1L98.8,146.5L98.8,146.5z"/>
	</g>
	<g>
		<path class="st1" d="M98.8,146.5l-0.2-0.1c0,0,0,0.1,0,0.1L98.8,146.5L98.8,146.5z"/>
	</g>
</g>
<g>
	<g>
		<line class="st1" x1="118.7" y1="120.1" x2="118.7" y2="120.1"/>
	</g>
</g>
<g>
	<g>
		
			<radialGradient id="SVGID_8_" cx="98.72" cy="47.2911" r="0.2129" gradientTransform="matrix(1 0 0 -1 0 193.9721)" gradientUnits="userSpaceOnUse">
			<stop  offset="0" style="stop-color:#FFF6E9;stop-opacity:0.95"/>
			<stop  offset="0.34" style="stop-color:#FFF9F1;stop-opacity:0.69"/>
			<stop  offset="1" style="stop-color:#FFFFFF;stop-opacity:0.2"/>
		</radialGradient>
		<path class="st9" d="M98.7,146.4C98.7,146.5,98.7,146.5,98.7,146.4c-0.1,0.2-0.1,0.4-0.1,0.5l0.3-0.4"/>
	</g>
	<g>
		<path class="st1" d="M98.7,146.4C98.7,146.5,98.7,146.5,98.7,146.4c-0.1,0.2-0.1,0.4-0.1,0.5l0.3-0.4"/>
	</g>
</g>
<g>
	<g>
		<g>
			<path class="st5" d="M45.2,148l-0.3-0.3C45.1,147.8,45.2,147.9,45.2,148z"/>
			<path class="st5" d="M45,147.6c0.1,0.2,0.2,0.3,0.3,0.3L45,147.6"/>
			<line class="st5" x1="45" y1="147.6" x2="44.7" y2="147.3"/>
			<path class="st5" d="M45,147.6c-1.5-2.1-8.2-13.9-23.3-31.4"/>
		</g>
	</g>
</g>
<g>
	<g>
		<path class="st5" d="M98.2,146.6c0.8-2,4.4-8.6,20-26.4l0.1-0.1c12.8-15.1,21-29.9,21-49.3c0-37.8-30.6-68.4-68.4-68.4
			C33.1,2.5,2.5,33.1,2.5,70.9c0,19.6,6.3,31.7,19.1,45.3l-0.5-0.6"/>
	</g>
</g>
<g>
	<g>
		<line class="st5" x1="21.6" y1="116.2" x2="21.1" y2="115.6"/>
	</g>
</g>
<g>
	<g>
		<line class="st5" x1="21.6" y1="116.2" x2="21.1" y2="115.6"/>
	</g>
</g>
<g>
	<g>
		<path class="st5" d="M98.3,146.7l-0.2-0.1c0,0,0,0.1,0,0.1L98.3,146.7L98.3,146.7z"/>
	</g>
</g>
<g>
	<g>
		<path class="st5" d="M118.2,120.2c-15.6,17.7-19.2,24.4-20,26.4c0,0,0,0.1,0,0.1c-0.1,0.1-0.1,0.3-0.1,0.4l0.3-0.4"/>
	</g>
</g>
<g>
	<g>
		<circle class="st10" cx="47.4" cy="57.6" r="3.2"/>
	</g>
	<g>
		<circle class="st5" cx="47.4" cy="57.6" r="3.2"/>
	</g>
</g>
<g>
	<g>
		<path class="st5" d="M38.5,29.1"/>
	</g>
</g>
<g>
	<g>
		<path class="st11" d="M100.1,189.7c-2.6-2.8-4.6-3-4.6-3c-18.2-6.2-50-5.8-50-5.8c14.1-4.2,52.5-6.8,52.5-6.8
			c-2.9-4.2-53.5-2.4-53.5-2.4c3.2-4.2,55.7-9.5,55.7-9.5c-6.3-5.7-56.2-2.8-56.2-2.8c4.1-4.5,61.1-10.7,61.1-10.7
			s-64.3,0.9-66.8-0.2c-2.1-0.9-2.4-0.6-5-4.1"/>
	</g>
</g>
</svg>
