<?xml version="1.0" encoding="utf-8"?>
<!-- Generator: Adobe Illustrator 21.0.0, SVG Export Plug-In . SVG Version: 6.00 Build 0)  -->
<svg version="1.1" id="Layer_1" xmlns="http://www.w3.org/2000/svg" xmlns:xlink="http://www.w3.org/1999/xlink" x="0px" y="0px"
	 viewBox="0 0 526 700" style="enable-background:new 0 0 526 700;" xml:space="preserve">
<style type="text/css">
	.st0{fill:none;stroke:#252B5F;stroke-width:15;}
	.st1{fill:none;stroke:#252B5F;stroke-width:10;stroke-miterlimit:10;}
	.st2{fill:none;stroke:#252B5F;stroke-width:10;stroke-linecap:round;stroke-miterlimit:10;}
</style>
<title>Group 2</title>
<desc>Created with Sketch.</desc>
<g id="Welcome">
	<g id="About" transform="translate(0.000000, -2442.000000)">
		<g id="Group-2" transform="translate(-1.000000, 2446.000000)">
			<path id="Path-2" class="st0" d="M249.5,544.7c0,0-174.4-82.5-187.6-149.9s60-166.4,30-228.4S0,0,0,0"/>
		</g>
	</g>
</g>
<g>
	<path class="st1" d="M378.2,695.7c-48.7-8.9-105.5-49.5-119.1-62.9c-10.1-10-20.1-22-18.9-53.6c0.1-2.9,2.2-40.1,31.7-62.5
		c17.6-13.4,48.9-11.6,79.4-6c33.8,6.2,100.1,19,118.6,28.2"/>
	<path class="st1" d="M476.6,630.9l0.1,4.9c0.1,2.6-0.4,5.3-1.3,7.7"/>
	<path class="st1" d="M476.6,630.9"/>
	<path class="st1" d="M443,664.3l-63.6,32c-3.9,1.9-7.2-1.6-7.3-7.8l-2-89.4c-0.1-6.2,2.9-13,6.8-14.9l90.6-45.6
		c3.9-1.9,7.2,1.6,7.3,7.8l1.2,54.4"/>
	<path class="st2" d="M436.8,587.7l76.7,26.4c0,0,12.8,6.3,7.6,18.5c-5.2,12.2-15.4,10.9-15.4,10.9l-73.2-29.6"/>
	<path class="st2" d="M400.2,618.2l76.7,26.4c0,0,12.8,6.3,7.6,18.5S469.1,674,469.1,674l-73.2-29.6"/>
</g>
</svg>
