<?xml version="1.0" encoding="utf-8"?>
<!-- Generator: Adobe Illustrator 21.0.2, SVG Export Plug-In . SVG Version: 6.00 Build 0)  -->
<svg version="1.1" id="Layer_1" xmlns="http://www.w3.org/2000/svg" xmlns:xlink="http://www.w3.org/1999/xlink" x="0px" y="0px"
	 viewBox="0 0 676 345.4" style="enable-background:new 0 0 676 345.4;" xml:space="preserve">
<style type="text/css">
	.st0{fill:url(#SVGID_1_);}
	.st1{fill:none;stroke:#FFFFFF;stroke-miterlimit:10;}
	.st2{fill:url(#SVGID_2_);stroke:#FFFFFF;stroke-miterlimit:10;}
	.st3{fill:url(#SVGID_3_);stroke:#FFFFFF;stroke-miterlimit:10;}
	.st4{fill:none;stroke:#FFFFFF;stroke-width:5;stroke-linejoin:round;}
	.st5{fill:url(#SVGID_4_);stroke:#FFFFFF;stroke-miterlimit:10;}
	.st6{fill:url(#SVGID_5_);stroke:#FFFFFF;stroke-miterlimit:10;}
	.st7{fill:#FFFFFF;stroke:#FFFFFF;stroke-miterlimit:10;}
	.st8{fill:#FFFFFF;stroke:#FFFFFF;stroke-width:5;stroke-linejoin:round;}
	.st9{fill:none;stroke:#FFFFFF;stroke-width:5;stroke-linecap:round;stroke-linejoin:round;}
</style>
<radialGradient id="SVGID_1_" cx="52.3218" cy="300.9449" r="624.2651" gradientUnits="userSpaceOnUse">
	<stop  offset="0" style="stop-color:#17EAD9"/>
	<stop  offset="0.1943" style="stop-color:#22DAD9"/>
	<stop  offset="0.5766" style="stop-color:#3DAEDA"/>
	<stop  offset="1" style="stop-color:#6078DA"/>
</radialGradient>
<rect y="0.8" class="st0" width="676" height="344.6"/>
<title>gray_logo</title>
<g>
	<g>
		<line class="st1" x1="-8.6" y1="313" x2="-8.8" y2="312.2"/>
	</g>
	<g>
		<line class="st1" x1="-8.6" y1="313" x2="-8.8" y2="312.2"/>
	</g>
</g>
<g>
	<g>
		<line class="st1" x1="-8.6" y1="313" x2="-8.8" y2="312.2"/>
	</g>
	<g>
		<line class="st1" x1="-8.6" y1="313" x2="-8.8" y2="312.2"/>
	</g>
</g>
<g>
	<g>
		
			<linearGradient id="SVGID_2_" gradientUnits="userSpaceOnUse" x1="412.9673" y1="-1190.0177" x2="413.2173" y2="-1190.0177" gradientTransform="matrix(0.866 0.5 0.5 -0.866 279.803 -859.3541)">
			<stop  offset="0" style="stop-color:#F9D801;stop-opacity:0.5"/>
			<stop  offset="0.11" style="stop-color:#F9B301;stop-opacity:0.67"/>
			<stop  offset="0.3" style="stop-color:#F86B00"/>
			<stop  offset="0.64" style="stop-color:#F50C00"/>
			<stop  offset="0.96" style="stop-color:#9C14B9"/>
		</linearGradient>
		<path class="st2" d="M42.5,377.8l-0.1-0.2v0.1L42.5,377.8L42.5,377.8z"/>
	</g>
	<g>
		<path class="st1" d="M42.5,377.8l-0.1-0.2v0.1L42.5,377.8L42.5,377.8z"/>
	</g>
</g>
<g>
	<g>
		
			<linearGradient id="SVGID_3_" gradientUnits="userSpaceOnUse" x1="412.8473" y1="-1177.0295" x2="432.9875" y2="-1177.0295" gradientTransform="matrix(0.866 0.5 0.5 -0.866 279.803 -859.3541)">
			<stop  offset="0" style="stop-color:#F9D801;stop-opacity:0.5"/>
			<stop  offset="0.11" style="stop-color:#F9B301;stop-opacity:0.67"/>
			<stop  offset="0.3" style="stop-color:#F86B00"/>
			<stop  offset="0.64" style="stop-color:#F50C00"/>
			<stop  offset="0.96" style="stop-color:#9C14B9"/>
		</linearGradient>
		<path class="st3" d="M73,364.8c-22.4,7.5-28.8,11.5-30.5,12.9v0.1c-0.1,0-0.2,0.2-0.3,0.3l0.5-0.2"/>
	</g>
	<g>
		<path class="st1" d="M73,364.8c-22.4,7.5-28.8,11.5-30.5,12.9v0.1c-0.1,0-0.2,0.2-0.3,0.3l0.5-0.2"/>
	</g>
</g>
<g>
	<g>
		<g>
			<path class="st4" d="M77.9,267.6c-2-1.1-10.1,3.5-15.8,14c-3.2,5.9-7.4,17-9,26.3c7.3-4.7,15.1-12.2,20.4-19.7
				C83.4,274.1,79.9,268.8,77.9,267.6z"/>
			<path class="st4" d="M75,302.7c-2.4-1.4-8.9,1.4-6.2,7.9c1.8,4.1,2.8,6.9,3.5,9.6c1.1-1.2,2.2-2.6,2.9-3.8
				C78.1,311.4,77.4,304.1,75,302.7z"/>
			<path class="st4" d="M72.3,320.2c0.4,1.5,0.6,3,0.7,4.7c0.5,4.7-1.8,8.4-4.7,12.4c-3.6,4.8-12.9,8.8-23.8,21.7
				c-2.7,3.2-10.1,15.3-10.1,15.3"/>
			<path class="st4" d="M72.3,320.2c1.1-1.2,2.2-2.6,2.9-3.8c3-5.1,2.3-12.3-0.2-13.7c-2.4-1.4-8.9,1.4-6.2,7.9
				C70.6,314.8,71.6,317.5,72.3,320.2"/>
			<path class="st4" d="M72.3,320.2c-3.7,3.8-9.4,6.6-16,3.1c-3.8-2-4.2-8.2-3-15.4"/>
			<path class="st4" d="M53.3,308c-6.2,4-12.2,6-15.8,4.2c-8.6-4.5-1.2-23.9-1.2-23.9c-12,13-14.8,9.2-19.9,17.7
				c-4.2,6.8-0.1,16.1-6.3,32.4c-4.9,12.7-8.6,17.9-7.5,18.8"/>
			<path class="st4" d="M53.3,308c7.3-4.7,15.1-12.2,20.4-19.7c9.7-14,6.3-19.5,4.3-20.6s-10.1,3.5-15.8,14
				C59,287.5,54.8,298.6,53.3,308"/>
		</g>
	</g>
</g>
<g>
	<g>
		<line class="st1" x1="-8.4" y1="313.5" x2="-8.5" y2="312.7"/>
	</g>
	<g>
		<line class="st1" x1="-8.4" y1="313.5" x2="-8.5" y2="312.7"/>
	</g>
</g>
<g>
	<g>
		<line class="st1" x1="-8.4" y1="313.5" x2="-8.5" y2="312.7"/>
	</g>
	<g>
		<line class="st1" x1="-8.4" y1="313.5" x2="-8.5" y2="312.7"/>
	</g>
</g>
<g>
	<g>
		
			<radialGradient id="SVGID_4_" cx="413.6117" cy="-1190.26" r="9.329879e-02" gradientTransform="matrix(0.866 0.5 0.5 -0.866 279.803 -859.3541)" gradientUnits="userSpaceOnUse">
			<stop  offset="0" style="stop-color:#FFF6E9;stop-opacity:0.95"/>
			<stop  offset="0.34" style="stop-color:#FFF9F1;stop-opacity:0.69"/>
			<stop  offset="1" style="stop-color:#FFFFFF;stop-opacity:0.2"/>
		</radialGradient>
		<path class="st5" d="M42.8,378.3l-0.1-0.2v0.1L42.8,378.3L42.8,378.3z"/>
	</g>
	<g>
		<path class="st1" d="M42.8,378.3l-0.1-0.2v0.1L42.8,378.3L42.8,378.3z"/>
	</g>
</g>
<g>
	<g>
		<line class="st1" x1="73.2" y1="365.4" x2="73.2" y2="365.4"/>
	</g>
</g>
<g>
	<g>
		
			<radialGradient id="SVGID_5_" cx="413.5274" cy="-1190.465" r="0.2129" gradientTransform="matrix(0.866 0.5 0.5 -0.866 279.803 -859.3541)" gradientUnits="userSpaceOnUse">
			<stop  offset="0" style="stop-color:#FFF6E9;stop-opacity:0.95"/>
			<stop  offset="0.34" style="stop-color:#FFF9F1;stop-opacity:0.69"/>
			<stop  offset="1" style="stop-color:#FFFFFF;stop-opacity:0.2"/>
		</radialGradient>
		<path class="st6" d="M42.8,378.1C42.7,378.2,42.7,378.2,42.8,378.1c-0.2,0.1-0.3,0.3-0.3,0.4l0.5-0.2"/>
	</g>
	<g>
		<path class="st1" d="M42.8,378.1C42.7,378.2,42.7,378.2,42.8,378.1c-0.2,0.1-0.3,0.3-0.3,0.4l0.5-0.2"/>
	</g>
</g>
<g>
	<g>
		<g>
			<path class="st4" d="M-4.4,352.8l-0.1-0.4C-4.3,352.5-4.3,352.7-4.4,352.8z"/>
			<path class="st4" d="M-4.3,352.3c0,0.2,0,0.4,0.1,0.4L-4.3,352.3"/>
			<line class="st4" x1="-4.3" y1="352.3" x2="-4.4" y2="351.9"/>
			<path class="st4" d="M-4.3,352.3c-0.2-2.6-0.2-16.1-4.5-38.8"/>
		</g>
	</g>
</g>
<g>
	<g>
		<path class="st4" d="M42.2,378.1c1.7-1.3,8.1-5.2,30.5-12.9h0.1c18.6-6.7,33.1-15.4,42.8-32.2c18.9-32.7,7.7-74.5-25-93.4
			C57.8,220.8,16,232-2.9,264.7c-9.8,17-10.4,30.6-6.1,48.8l-0.1-0.8"/>
	</g>
</g>
<g>
	<g>
		<line class="st4" x1="-8.9" y1="313.4" x2="-9" y2="312.7"/>
	</g>
</g>
<g>
	<g>
		<line class="st4" x1="-8.9" y1="313.4" x2="-9" y2="312.7"/>
	</g>
</g>
<g>
	<g>
		<path class="st4" d="M42.3,378.2l-0.1-0.2v0.1L42.3,378.2L42.3,378.2z"/>
	</g>
</g>
<g>
	<g>
		<path class="st4" d="M72.8,365.2c-22.4,7.5-28.8,11.5-30.5,12.9v0.1c-0.1,0-0.2,0.2-0.3,0.3l0.5-0.2"/>
	</g>
</g>
<g>
	<g>
		<ellipse transform="matrix(0.5 -0.866 0.866 0.5 -217.34 174.8218)" class="st7" cx="42.7" cy="275.6" rx="3.2" ry="3.2"/>
	</g>
	<g>
		<ellipse transform="matrix(0.5 -0.866 0.866 0.5 -217.34 174.8218)" class="st8" cx="42.7" cy="275.6" rx="3.2" ry="3.2"/>
	</g>
</g>
<g>
	<g>
		<path class="st4" d="M49.3,246.5"/>
	</g>
</g>
<g>
	<g>
		<path class="st9" d="M22.3,416.3c-0.9-3.7-2.5-4.9-2.5-4.9c-12.7-14.5-40.4-30-40.4-30c14.3,3.4,48.9,20.4,48.9,20.4
			c-0.4-5.1-45.1-28.8-45.1-28.8c4.9-2,53,19.6,53,19.6c-2.6-8.1-47.3-30.5-47.3-30.5c5.8-1.8,58.3,21.3,58.3,21.3
			S-9,352-10.6,349.8c-1.4-1.8-1.8-1.7-2.3-6.1"/>
	</g>
</g>
<line class="st9" x1="93.4" y1="223.8" x2="220.6" y2="-0.9"/>
<line class="st9" x1="122.8" y1="246.5" x2="410.3" y2="0.8"/>
<line class="st9" x1="137.6" y1="278.8" x2="676.5" y2="146.3"/>
<line class="st9" x1="137.4" y1="314.3" x2="309.1" y2="356.3"/>
<line class="st9" x1="57.6" y1="216.8" x2="74" y2="0"/>
<line class="st9" x1="22.8" y1="223.3" x2="-8.5" y2="121"/>
</svg>
