<?xml version="1.0" encoding="utf-8"?>
<!-- Generator: Adobe Illustrator 21.0.2, SVG Export Plug-In . SVG Version: 6.00 Build 0)  -->
<svg version="1.1" id="Layer_1" xmlns="http://www.w3.org/2000/svg" xmlns:xlink="http://www.w3.org/1999/xlink" x="0px" y="0px"
	 viewBox="0 0 968.8 668" style="enable-background:new 0 0 968.8 668;" xml:space="preserve">
<style type="text/css">
	.st0{fill:none;stroke:#FFFFFF;stroke-miterlimit:10;}
	.st1{fill:url(#SVGID_1_);stroke:#FFFFFF;stroke-miterlimit:10;}
	.st2{fill:url(#SVGID_2_);stroke:#FFFFFF;stroke-miterlimit:10;}
	.st3{fill:none;stroke:#FFFFFF;stroke-width:5;stroke-linejoin:round;}
	.st4{fill:url(#SVGID_3_);stroke:#FFFFFF;stroke-miterlimit:10;}
	.st5{fill:url(#SVGID_4_);stroke:#FFFFFF;stroke-miterlimit:10;}
	.st6{fill:#FFFFFF;stroke:#FFFFFF;stroke-miterlimit:10;}
	.st7{fill:#FFFFFF;stroke:#FFFFFF;stroke-width:5;stroke-linejoin:round;}
	.st8{fill:none;stroke:#FFFFFF;stroke-width:5;stroke-linecap:round;stroke-linejoin:round;}
</style>
<title>gray_logo</title>
<g>
	<g>
		<line class="st0" x1="446.4" y1="591.5" x2="445.9" y2="590.9"/>
	</g>
	<g>
		<line class="st0" x1="446.4" y1="591.5" x2="445.9" y2="590.9"/>
	</g>
</g>
<g>
	<g>
		<line class="st0" x1="446.4" y1="591.5" x2="445.9" y2="590.9"/>
	</g>
	<g>
		<line class="st0" x1="446.4" y1="591.5" x2="445.9" y2="590.9"/>
	</g>
</g>
<g>
	<g>
		
			<linearGradient id="SVGID_1_" gradientUnits="userSpaceOnUse" x1="522.9971" y1="-781.9779" x2="523.2471" y2="-781.9779" gradientTransform="matrix(1 0 0 -1 0 -160.0279)">
			<stop  offset="0" style="stop-color:#F9D801;stop-opacity:0.5"/>
			<stop  offset="0.11" style="stop-color:#F9B301;stop-opacity:0.67"/>
			<stop  offset="0.3" style="stop-color:#F86B00"/>
			<stop  offset="0.64" style="stop-color:#F50C00"/>
			<stop  offset="0.96" style="stop-color:#9C14B9"/>
		</linearGradient>
		<path class="st1" d="M523.1,622l-0.2-0.1v0.1H523.1L523.1,622z"/>
	</g>
	<g>
		<path class="st0" d="M523.1,622l-0.2-0.1v0.1H523.1L523.1,622z"/>
	</g>
</g>
<g>
	<g>
		
			<linearGradient id="SVGID_2_" gradientUnits="userSpaceOnUse" x1="522.8771" y1="-768.9779" x2="543.0172" y2="-768.9779" gradientTransform="matrix(1 0 0 -1 0 -160.0279)">
			<stop  offset="0" style="stop-color:#F9D801;stop-opacity:0.5"/>
			<stop  offset="0.11" style="stop-color:#F9B301;stop-opacity:0.67"/>
			<stop  offset="0.3" style="stop-color:#F86B00"/>
			<stop  offset="0.64" style="stop-color:#F50C00"/>
			<stop  offset="0.96" style="stop-color:#9C14B9"/>
		</linearGradient>
		<path class="st2" d="M543,595.5c-15.6,17.7-19.2,24.4-20,26.4v0.1c-0.1,0.1-0.1,0.3-0.1,0.4l0.3-0.4"/>
	</g>
	<g>
		<path class="st0" d="M543,595.5c-15.6,17.7-19.2,24.4-20,26.4v0.1c-0.1,0.1-0.1,0.3-0.1,0.4l0.3-0.4"/>
	</g>
</g>
<g>
	<g>
		<g>
			<path class="st3" d="M498.7,508.9c-2.3,0-7,8.1-6.7,20c0.2,6.7,2.1,18.4,5.4,27.3c4-7.7,7-18.1,7.8-27.3
				C506.7,511.8,501,508.9,498.7,508.9z"/>
			<path class="st3" d="M513.7,540.8c-2.8,0-7,5.7-1.4,9.9c3.6,2.7,5.9,4.6,7.8,6.6c0.4-1.6,0.6-3.3,0.6-4.7
				C520.7,546.7,516.5,540.8,513.7,540.8z"/>
			<path class="st3" d="M520.1,557.3c1.1,1.1,2,2.3,3,3.7c2.8,3.8,2.6,8.2,2.1,13.1c-0.7,6-6.8,14.1-9.7,30.7
				c-0.7,4.1-1.1,18.3-1.1,18.3"/>
			<path class="st3" d="M520.1,557.3c0.4-1.6,0.6-3.3,0.6-4.7c0-5.9-4.2-11.8-7-11.8s-7,5.7-1.4,9.9
				C515.9,553.4,518.2,555.3,520.1,557.3"/>
			<path class="st3" d="M520.1,557.3c-1.3,5.1-4.9,10.4-12.3,10.7c-4.3,0.2-7.7-5-10.3-11.8"/>
			<path class="st3" d="M497.5,556.2c-3.4,6.6-7.6,11.3-11.6,11.5c-9.7,0.4-13-20.1-13-20.1c-3.9,17.3-8.2,15.4-8.4,25.3
				c-0.2,8,8,14,10.7,31.2c2.1,13.4,1.5,19.8,2.9,20"/>
			<path class="st3" d="M497.5,556.2c4-7.7,7-18.1,7.8-27.3c1.4-17-4.3-20-6.6-20s-7,8.1-6.7,20
				C492.2,535.6,494.1,547.3,497.5,556.2"/>
		</g>
	</g>
</g>
<g>
	<g>
		<line class="st0" x1="446.9" y1="591.8" x2="446.4" y2="591.2"/>
	</g>
	<g>
		<line class="st0" x1="446.9" y1="591.8" x2="446.4" y2="591.2"/>
	</g>
</g>
<g>
	<g>
		<line class="st0" x1="446.9" y1="591.8" x2="446.4" y2="591.2"/>
	</g>
	<g>
		<line class="st0" x1="446.9" y1="591.8" x2="446.4" y2="591.2"/>
	</g>
</g>
<g>
	<g>
		
			<radialGradient id="SVGID_3_" cx="523.6415" cy="-782.2905" r="9.329879e-02" gradientTransform="matrix(1 0 0 -1 0 -160.0279)" gradientUnits="userSpaceOnUse">
			<stop  offset="0" style="stop-color:#FFF6E9;stop-opacity:0.95"/>
			<stop  offset="0.34" style="stop-color:#FFF9F1;stop-opacity:0.69"/>
			<stop  offset="1" style="stop-color:#FFFFFF;stop-opacity:0.2"/>
		</radialGradient>
		<path class="st4" d="M523.6,622.3l-0.2-0.1v0.1H523.6L523.6,622.3z"/>
	</g>
	<g>
		<path class="st0" d="M523.6,622.3l-0.2-0.1v0.1H523.6L523.6,622.3z"/>
	</g>
</g>
<g>
	<g>
		<line class="st0" x1="543.5" y1="595.9" x2="543.5" y2="595.9"/>
	</g>
</g>
<g>
	<g>
		
			<radialGradient id="SVGID_4_" cx="523.5571" cy="-782.4955" r="0.2129" gradientTransform="matrix(1 0 0 -1 0 -160.0279)" gradientUnits="userSpaceOnUse">
			<stop  offset="0" style="stop-color:#FFF6E9;stop-opacity:0.95"/>
			<stop  offset="0.34" style="stop-color:#FFF9F1;stop-opacity:0.69"/>
			<stop  offset="1" style="stop-color:#FFFFFF;stop-opacity:0.2"/>
		</radialGradient>
		<path class="st5" d="M523.5,622.2C523.5,622.3,523.5,622.3,523.5,622.2c-0.1,0.2-0.1,0.4-0.1,0.5l0.3-0.4"/>
	</g>
	<g>
		<path class="st0" d="M523.5,622.2C523.5,622.3,523.5,622.3,523.5,622.2c-0.1,0.2-0.1,0.4-0.1,0.5l0.3-0.4"/>
	</g>
</g>
<g>
	<g>
		<g>
			<path class="st3" d="M470,623.8l-0.3-0.3C469.9,623.6,470,623.7,470,623.8z"/>
			<path class="st3" d="M469.8,623.4c0.1,0.2,0.2,0.3,0.3,0.3L469.8,623.4"/>
			<line class="st3" x1="469.8" y1="623.4" x2="469.5" y2="623.1"/>
			<path class="st3" d="M469.8,623.4c-1.5-2.1-8.2-13.9-23.3-31.4"/>
		</g>
	</g>
</g>
<g>
	<g>
		<path class="st3" d="M523,622.4c0.8-2,4.4-8.6,20-26.4l0.1-0.1c12.8-15.1,21-29.9,21-49.3c0-37.8-30.6-68.4-68.4-68.4
			c-37.8,0.1-68.4,30.7-68.4,68.5c0,19.6,6.3,31.7,19.1,45.3l-0.5-0.6"/>
	</g>
</g>
<g>
	<g>
		<line class="st3" x1="446.4" y1="592" x2="445.9" y2="591.4"/>
	</g>
</g>
<g>
	<g>
		<line class="st3" x1="446.4" y1="592" x2="445.9" y2="591.4"/>
	</g>
</g>
<g>
	<g>
		<path class="st3" d="M523.1,622.5l-0.2-0.1v0.1H523.1L523.1,622.5z"/>
	</g>
</g>
<g>
	<g>
		<path class="st3" d="M543,596c-15.6,17.7-19.2,24.4-20,26.4v0.1c-0.1,0.1-0.1,0.3-0.1,0.4l0.3-0.4"/>
	</g>
</g>
<g>
	<g>
		<circle class="st6" cx="472.2" cy="533.4" r="3.2"/>
	</g>
	<g>
		<circle class="st7" cx="472.2" cy="533.4" r="3.2"/>
	</g>
</g>
<g>
	<g>
		<path class="st3" d="M463.3,504.9"/>
	</g>
</g>
<g>
	<g>
		<path class="st8" d="M524.9,665.5c-2.6-2.8-4.6-3-4.6-3c-18.2-6.2-50-5.8-50-5.8c14.1-4.2,52.5-6.8,52.5-6.8
			c-2.9-4.2-53.5-2.4-53.5-2.4c3.2-4.2,55.7-9.5,55.7-9.5c-6.3-5.7-56.2-2.8-56.2-2.8c4.1-4.5,61.1-10.7,61.1-10.7
			s-64.3,0.9-66.8-0.2c-2.1-0.9-2.4-0.6-5-4.1"/>
	</g>
</g>
<line class="st8" x1="495.7" y1="459.4" x2="495.7" y2="2.5"/>
<line class="st8" x1="580.9" y1="547.6" x2="966.3" y2="547.6"/>
<line class="st8" x1="410.9" y1="547.6" x2="2.5" y2="547.6"/>
<line class="st8" x1="420" y1="503.8" x2="2.5" y2="245.6"/>
<line class="st8" x1="451.4" y1="472" x2="206.7" y2="2.5"/>
<line class="st8" x1="538.5" y1="470.5" x2="764.6" y2="2.5"/>
<line class="st8" x1="570.8" y1="503" x2="966.3" y2="249.8"/>
</svg>
