<svg id="Layer_1" data-name="Layer 1" xmlns="http://www.w3.org/2000/svg" xmlns:xlink="http://www.w3.org/1999/xlink" viewBox="0 0 464.96 192.23"><defs><style>.cls-1,.cls-11,.cls-5{fill:none;}.cls-1{stroke:#2b241b;stroke-width:6px;}.cls-1,.cls-10,.cls-11,.cls-5{stroke-linejoin:round;}.cls-10,.cls-11,.cls-2,.cls-3,.cls-4,.cls-5,.cls-6,.cls-7,.cls-8,.cls-9{stroke:#292929;}.cls-2,.cls-3,.cls-4,.cls-6,.cls-7,.cls-8,.cls-9{stroke-miterlimit:10;}.cls-2{fill:url(#linear-gradient);}.cls-3{fill:url(#linear-gradient-3);}.cls-4{fill:url(#linear-gradient-4);}.cls-10,.cls-11,.cls-5{stroke-width:5px;}.cls-6{fill:url(#radial-gradient);}.cls-7{fill:url(#radial-gradient-3);}.cls-8{fill:url(#radial-gradient-4);}.cls-9{fill:url(#radial-gradient-5);}.cls-10,.cls-12{fill:#292929;}.cls-11{stroke-linecap:round;}</style><linearGradient id="linear-gradient" x1="21.08" y1="115.37" x2="21.61" y2="115.37" gradientUnits="userSpaceOnUse"><stop offset="0" stop-color="#f9d801" stop-opacity="0.5"/><stop offset="0.11" stop-color="#f9b301" stop-opacity="0.67"/><stop offset="0.3" stop-color="#f86b00"/><stop offset="0.64" stop-color="#f50c00"/><stop offset="0.96" stop-color="#9c14b9"/></linearGradient><linearGradient id="linear-gradient-3" x1="98.17" y1="146.14" x2="98.42" y2="146.14" xlink:href="#linear-gradient"/><linearGradient id="linear-gradient-4" x1="98.03" y1="133.18" x2="118.19" y2="133.18" xlink:href="#linear-gradient"/><radialGradient id="radial-gradient" cx="39.69" cy="41.7" r="62.01" gradientUnits="userSpaceOnUse"><stop offset="0" stop-color="#fff6e9" stop-opacity="0.95"/><stop offset="0.34" stop-color="#fff9f1" stop-opacity="0.69"/><stop offset="1" stop-color="#fff" stop-opacity="0.2"/></radialGradient><radialGradient id="radial-gradient-3" cx="42.06" cy="46.14" r="62.01" xlink:href="#radial-gradient"/><radialGradient id="radial-gradient-4" cx="118.68" cy="120.08" r="0.01" xlink:href="#radial-gradient"/><radialGradient id="radial-gradient-5" cx="97.6" cy="145.03" r="1.14" xlink:href="#radial-gradient"/></defs><title>gray_logo</title><path class="cls-1" d="M540.3,60.79"/><path class="cls-2" d="M21.61,115.67l-.53-.59"/><path class="cls-2" d="M21.61,115.67l-.53-.59"/><path class="cls-3" d="M98.42,146.18h-.25a.55.55,0,0,1,0-.08l.17.07Z"/><path class="cls-4" d="M98.37,146.17h0l-.32.43a4.51,4.51,0,0,1,.14-.43.55.55,0,0,1,0-.08c.78-2,4.38-8.64,20-26.37h0"/><path class="cls-5" d="M53.33,148.27c-1.33-.22-.79-6.62-2.88-20-2.69-17.19-10.9-23.17-10.72-31.2.22-9.87,4.5-8,8.4-25.28,0,0,3.27,20.5,13,20.06,8.66-.39,17.95-21.74,19.37-38.77s-4.29-20-6.6-20-7,8.12-6.66,20S73.21,92.53,83,92.18s12.91-9.42,12.91-15.35S91.7,65,88.91,65s-7,5.72-1.37,9.91,8,6.49,10.8,10.33,2.62,8.22,2.07,13.09c-.67,5.95-6.76,14.1-9.68,30.71-.73,4.14-1.1,18.29-1.1,18.29"/><path class="cls-6" d="M22.13,116l-.53-.59"/><path class="cls-6" d="M22.13,116l-.53-.59"/><path class="cls-7" d="M98.94,146.53h-.25a.55.55,0,0,1,0-.08l.17.07Z"/><line class="cls-8" x1="118.7" y1="120.08" x2="118.71" y2="120.08"/><path class="cls-9" d="M98.89,146.52h0l-.32.43a4.51,4.51,0,0,1,.14-.43.55.55,0,0,1,0-.08"/><path class="cls-5" d="M44.68,147.3l.56.67c-.72-.51-7.23-12.77-23.6-31.73"/><path class="cls-5" d="M98.2,146.62c.78-2,4.38-8.64,20-26.37h0l.07-.08c12.79-15.14,21-29.92,21-49.29a68.38,68.38,0,0,0-136.76,0c0,19.61,6.27,31.66,19.11,45.31l-.53-.59"/><path class="cls-5" d="M21.61,116.19l-.53-.59"/><path class="cls-5" d="M21.61,116.19l-.53-.59"/><path class="cls-5" d="M98.42,146.7h-.25a.55.55,0,0,1,0-.08l.17.07Z"/><path class="cls-5" d="M98.37,146.69h0l-.32.43a4.51,4.51,0,0,1,.14-.43.55.55,0,0,1,0-.08c.78-2,4.38-8.64,20-26.37h0"/><circle class="cls-10" cx="47.39" cy="57.57" r="3.17"/><path class="cls-5" d="M38.52,29.1"/><path class="cls-11" d="M33.41,144.4c2.58,3.46,2.92,3.16,5,4.11,2.57,1.19,66.83.25,66.83.25s-57,6.25-61.15,10.72c0,0,49.86-2.91,56.19,2.75,0,0-52.54,5.29-55.71,9.46,0,0,50.55-1.71,53.48,2.45,0,0-38.37,2.61-52.5,6.78,0,0,31.75-.49,50,5.76,0,0,2,.23,4.59,3"/><path class="cls-12" d="M189.05,49.35a6,6,0,0,1-4.26-1.75,6.07,6.07,0,0,1-1.29-1.9,6.24,6.24,0,0,1,0-4.73,6.07,6.07,0,0,1,1.29-1.9,6,6,0,0,1,4.26-1.75,5.93,5.93,0,0,1,4.3,1.75,6,6,0,0,1,0,8.53A5.92,5.92,0,0,1,189.05,49.35ZM184.4,89.18V54.08h9.39V89.18Z"/><path class="cls-12" d="M211.19,58.66h.57a11.91,11.91,0,0,1,4.44-4.19,13,13,0,0,1,6.38-1.54,14.65,14.65,0,0,1,5.8,1.07,10.64,10.64,0,0,1,4.12,3,13.47,13.47,0,0,1,2.44,4.73,21.36,21.36,0,0,1,.82,6.13V89.18h-9.39V69q0-3.8-1.68-5.62a6.34,6.34,0,0,0-4.91-1.83,6.83,6.83,0,0,0-3.4.83,7.94,7.94,0,0,0-2.51,2.22,10.08,10.08,0,0,0-1.58,3.3,14.8,14.8,0,0,0-.54,4V89.18h-9.38V54.08h8.81Z"/><path class="cls-12" d="M252.32,58.66h.58a11.89,11.89,0,0,1,4.44-4.19,13,13,0,0,1,6.38-1.54,14.61,14.61,0,0,1,5.8,1.07,10.62,10.62,0,0,1,4.12,3,13.48,13.48,0,0,1,2.44,4.73,21.41,21.41,0,0,1,.82,6.13V89.18H267.5V69q0-3.8-1.68-5.62a6.35,6.35,0,0,0-4.91-1.83,6.85,6.85,0,0,0-3.41.83A8,8,0,0,0,255,64.64a10,10,0,0,0-1.57,3.3,14.69,14.69,0,0,0-.54,4V89.18h-9.39V54.08h8.81Z"/><path class="cls-12" d="M301.25,52.93a19.52,19.52,0,0,1,7.49,1.4,17.36,17.36,0,0,1,9.74,9.78,20.92,20.92,0,0,1,0,15,17.36,17.36,0,0,1-9.74,9.78,20.77,20.77,0,0,1-15,0A17.35,17.35,0,0,1,284,79.15a21,21,0,0,1,0-15,17.35,17.35,0,0,1,9.75-9.78A19.52,19.52,0,0,1,301.25,52.93Zm0,28.73a9.18,9.18,0,0,0,3.48-.68,8.86,8.86,0,0,0,3-2,9.31,9.31,0,0,0,2-3.15,12.25,12.25,0,0,0,0-8.45,9.34,9.34,0,0,0-2-3.15,8.88,8.88,0,0,0-3-2,9.21,9.21,0,0,0-3.48-.68,9.1,9.1,0,0,0-3.51.68,9,9,0,0,0-2.94,2,9.34,9.34,0,0,0-2,3.15,12.25,12.25,0,0,0,0,8.45,9.31,9.31,0,0,0,2,3.15,9,9,0,0,0,2.94,2A9.07,9.07,0,0,0,301.25,81.66Z"/><path class="cls-12" d="M321.45,54.08h10.68l8.74,22.35h.5l8.81-22.35h10.61L345.67,89.18h-9.24Z"/><path class="cls-12" d="M386,85.46h-.57a15.84,15.84,0,0,1-4,3.44,11.28,11.28,0,0,1-6,1.43,14.56,14.56,0,0,1-5.13-.89A13.27,13.27,0,0,1,366.17,87a11,11,0,0,1-2.8-3.8,11.71,11.71,0,0,1-1-4.87,11,11,0,0,1,1.08-4.91,11.19,11.19,0,0,1,3-3.76,13.54,13.54,0,0,1,4.55-2.4,18.88,18.88,0,0,1,5.69-.82,24.76,24.76,0,0,1,5.66.54A27.68,27.68,0,0,1,386,68V67a5.73,5.73,0,0,0-2.22-4.62,8.4,8.4,0,0,0-5.52-1.83A10.3,10.3,0,0,0,370,64.61L363.23,60q5.59-7,15.26-7,8.17,0,12.47,3.83t4.3,11.35V89.18H386Zm0-10.53a19.5,19.5,0,0,0-3.4-1.25,14.93,14.93,0,0,0-3.83-.47,8.11,8.11,0,0,0-5.2,1.47,4.48,4.48,0,0,0-1.82,3.62,4.05,4.05,0,0,0,1.75,3.44,6.65,6.65,0,0,0,4,1.29,8.62,8.62,0,0,0,6.12-2.47A8,8,0,0,0,386,74.92Z"/><path class="cls-12" d="M405.85,62.1h-6.16v-8h6.16V43.33h9.39V54.08h8.6v8h-8.6v14a10.07,10.07,0,0,0,.25,2.33,3.77,3.77,0,0,0,1,1.81,3.54,3.54,0,0,0,2.87,1.18,5.21,5.21,0,0,0,3.29-.93l2.65,8.24a15.49,15.49,0,0,1-3.54,1.18,20.7,20.7,0,0,1-4.19.39,12.81,12.81,0,0,1-4.76-.84,10.13,10.13,0,0,1-3.55-2.3q-3.37-3.29-3.37-9.36Z"/><path class="cls-12" d="M463.6,80.73a19.69,19.69,0,0,1-6.56,7A18.23,18.23,0,0,1,447,90.33a19.34,19.34,0,0,1-7.42-1.4,17.7,17.7,0,0,1-9.82-9.82,19.55,19.55,0,0,1-1.4-7.49,19.23,19.23,0,0,1,1.36-7.2,18.18,18.18,0,0,1,9.57-10,17.64,17.64,0,0,1,7.34-1.5,19.1,19.1,0,0,1,7.52,1.4,15.34,15.34,0,0,1,5.52,3.87A16.68,16.68,0,0,1,463,64a22.55,22.55,0,0,1,1.15,7.31v.86a5,5,0,0,0-.07.79,3.89,3.89,0,0,0-.07.79H437.59a9.9,9.9,0,0,0,1.18,3.69A8.91,8.91,0,0,0,441,80a8.59,8.59,0,0,0,2.9,1.5,11.26,11.26,0,0,0,3.22.47,9.14,9.14,0,0,0,5.34-1.47,10.73,10.73,0,0,0,3.33-3.69Zm-8.53-13.61a6.12,6.12,0,0,0-.61-2.08,7.31,7.31,0,0,0-1.58-2.15,8.25,8.25,0,0,0-2.58-1.65,9.54,9.54,0,0,0-3.69-.65,8.61,8.61,0,0,0-5.3,1.72,9.09,9.09,0,0,0-3.22,4.8Z"/><path class="cls-12" d="M184.4,107h9.38v15.4l-.57,5h.57a10.67,10.67,0,0,1,4-3.8,13.27,13.27,0,0,1,6.73-1.58,15.2,15.2,0,0,1,6.41,1.4,17.13,17.13,0,0,1,5.37,3.87A18.4,18.4,0,0,1,220,133.2a21.47,21.47,0,0,1,0,15,18.41,18.41,0,0,1-3.69,5.91,17.15,17.15,0,0,1-5.37,3.87,15.2,15.2,0,0,1-6.41,1.4,13.27,13.27,0,0,1-6.73-1.58,10.63,10.63,0,0,1-4-3.8h-.57v4.23H184.4Zm18.2,43.78a9,9,0,0,0,3.55-.72,9.35,9.35,0,0,0,3-2,9.8,9.8,0,0,0,2.08-3.15,11.34,11.34,0,0,0,0-8.31,9.8,9.8,0,0,0-2.08-3.15,9.34,9.34,0,0,0-3-2,9,9,0,0,0-3.55-.72,9.38,9.38,0,0,0-3.55.68,8.88,8.88,0,0,0-3,2,9.78,9.78,0,0,0-2.08,3.15,11.72,11.72,0,0,0,0,8.45,9.76,9.76,0,0,0,2.08,3.15,8.86,8.86,0,0,0,3,2A9.35,9.35,0,0,0,202.59,150.75Z"/><path class="cls-12" d="M260.63,149.82a19.7,19.7,0,0,1-6.56,7A18.22,18.22,0,0,1,244,159.42a19.32,19.32,0,0,1-7.41-1.4,17.69,17.69,0,0,1-9.82-9.82,19.52,19.52,0,0,1-1.4-7.49,19.2,19.2,0,0,1,1.36-7.2,18.17,18.17,0,0,1,9.57-10,17.64,17.64,0,0,1,7.34-1.5,19.1,19.1,0,0,1,7.52,1.4,15.35,15.35,0,0,1,5.52,3.87,16.72,16.72,0,0,1,3.36,5.84,22.55,22.55,0,0,1,1.15,7.31v.86a5,5,0,0,0-.07.79,3.68,3.68,0,0,0-.08.79H234.62a9.84,9.84,0,0,0,1.18,3.69,9,9,0,0,0,2.22,2.58,8.59,8.59,0,0,0,2.9,1.5,11.28,11.28,0,0,0,3.22.47,9.15,9.15,0,0,0,5.34-1.47,10.72,10.72,0,0,0,3.33-3.69Zm-8.53-13.61a6.1,6.1,0,0,0-.61-2.08,7.42,7.42,0,0,0-1.58-2.15,8.3,8.3,0,0,0-2.58-1.65,9.54,9.54,0,0,0-3.69-.65,8.59,8.59,0,0,0-5.3,1.72,9.06,9.06,0,0,0-3.23,4.8Z"/><path class="cls-12" d="M267.22,123.17H276V128h.57a9,9,0,0,1,1.72-2.36,12.37,12.37,0,0,1,2.4-1.87,13.43,13.43,0,0,1,2.87-1.29,10,10,0,0,1,3-.49,11.19,11.19,0,0,1,3.19.4,8.16,8.16,0,0,1,2.26,1l-2.51,8.38a8.94,8.94,0,0,0-1.9-.68,11.1,11.1,0,0,0-2.55-.25,8,8,0,0,0-3.51.76,7.72,7.72,0,0,0-2.69,2.13,10,10,0,0,0-1.72,3.21,12.57,12.57,0,0,0-.61,4v17.29h-9.39Z"/><path class="cls-12" d="M296.74,107h9.39v27.94h.43l11.75-11.75h11.61v.57l-13,12.68L331,157.7v.57H319.88l-9.6-15.4L306.12,147v11.32h-9.39Z"/><path class="cls-12" d="M366.88,149.82a19.69,19.69,0,0,1-6.56,7,18.23,18.23,0,0,1-10.07,2.65,19.34,19.34,0,0,1-7.42-1.4,17.7,17.7,0,0,1-9.82-9.82,19.55,19.55,0,0,1-1.4-7.49,19.23,19.23,0,0,1,1.36-7.2,18.18,18.18,0,0,1,9.57-10,17.64,17.64,0,0,1,7.34-1.5,19.1,19.1,0,0,1,7.52,1.4,15.34,15.34,0,0,1,5.52,3.87,16.68,16.68,0,0,1,3.37,5.84,22.55,22.55,0,0,1,1.15,7.31v.86a5,5,0,0,0-.07.79,3.89,3.89,0,0,0-.07.79H340.87a9.9,9.9,0,0,0,1.18,3.69,8.91,8.91,0,0,0,2.22,2.58,8.59,8.59,0,0,0,2.9,1.5,11.26,11.26,0,0,0,3.22.47,9.14,9.14,0,0,0,5.34-1.47,10.73,10.73,0,0,0,3.33-3.69Zm-8.53-13.61a6.11,6.11,0,0,0-.61-2.08,7.31,7.31,0,0,0-1.58-2.15,8.25,8.25,0,0,0-2.58-1.65,9.54,9.54,0,0,0-3.69-.65,8.61,8.61,0,0,0-5.3,1.72,9.09,9.09,0,0,0-3.22,4.8Z"/><path class="cls-12" d="M373.47,158.27V107h9.39v51.3Z"/><path class="cls-12" d="M423.76,149.82a19.69,19.69,0,0,1-6.56,7,18.23,18.23,0,0,1-10.07,2.65,19.34,19.34,0,0,1-7.42-1.4,17.7,17.7,0,0,1-9.82-9.82,19.55,19.55,0,0,1-1.4-7.49,19.23,19.23,0,0,1,1.36-7.2,18.18,18.18,0,0,1,9.57-10,17.64,17.64,0,0,1,7.34-1.5,19.1,19.1,0,0,1,7.52,1.4,15.34,15.34,0,0,1,5.52,3.87,16.68,16.68,0,0,1,3.37,5.84,22.55,22.55,0,0,1,1.15,7.31v.86a5,5,0,0,0-.07.79,3.89,3.89,0,0,0-.07.79H397.75a9.9,9.9,0,0,0,1.18,3.69,8.91,8.91,0,0,0,2.22,2.58,8.59,8.59,0,0,0,2.9,1.5,11.26,11.26,0,0,0,3.22.47,9.14,9.14,0,0,0,5.34-1.47,10.73,10.73,0,0,0,3.33-3.69Zm-8.53-13.61a6.11,6.11,0,0,0-.61-2.08,7.31,7.31,0,0,0-1.58-2.15,8.25,8.25,0,0,0-2.58-1.65,9.54,9.54,0,0,0-3.69-.65,8.61,8.61,0,0,0-5.3,1.72,9.09,9.09,0,0,0-3.22,4.8Z"/><path class="cls-12" d="M440.67,156.55l-14.76-33.39h10.68l8.89,21.28h.5l8.52-21.28H465l-22,50.58h-10.1Z"/><line class="cls-12" x1="184.4" y1="87.14" x2="193.78" y2="87.14"/><line class="cls-12" x1="193.78" y1="112.12" x2="184.4" y2="112.12"/></svg>