<?xml version="1.0" encoding="utf-8"?>
<!-- Generator: Adobe Illustrator 21.0.2, SVG Export Plug-In . SVG Version: 6.00 Build 0)  -->
<svg version="1.1" id="Layer_1" xmlns="http://www.w3.org/2000/svg" xmlns:xlink="http://www.w3.org/1999/xlink" x="0px" y="0px"
	 viewBox="0 0 282 136.4" style="enable-background:new 0 0 282 136.4;" xml:space="preserve">
<style type="text/css">
	.st0{fill:#292929;}
	.st1{fill:none;}
</style>
<title>gray_logo</title>
<path class="st0" d="M6,12c-1.6,0-3.1-0.6-4.3-1.8c-0.5-0.5-1-1.2-1.3-1.9c-0.6-1.5-0.6-3.2,0-4.7c0.3-0.7,0.7-1.4,1.3-1.9
	C2.9,0.6,4.4,0,6,0c1.6,0,3.2,0.6,4.3,1.8c2.4,2.3,2.4,6.1,0,8.5c0,0,0,0,0,0C9.2,11.4,7.6,12.1,6,12z M1.4,51.9V16.8h9.4v35.1H1.4z
	"/>
<path class="st0" d="M28.2,21.3h0.6c1.1-1.8,2.6-3.2,4.4-4.2c2-1.1,4.2-1.6,6.4-1.5c2,0,4,0.3,5.8,1.1c1.6,0.7,3,1.7,4.1,3
	c1.1,1.4,1.9,3,2.4,4.7c0.6,2,0.8,4.1,0.8,6.1v21.3h-9.4V31.7c0-2.5-0.6-4.4-1.7-5.6c-1.3-1.3-3.1-2-4.9-1.8c-1.2,0-2.4,0.3-3.4,0.8
	c-1,0.6-1.8,1.3-2.5,2.2c-0.7,1-1.3,2.1-1.6,3.3c-0.4,1.3-0.5,2.6-0.5,4v17.3h-9.4V16.8h8.8L28.2,21.3z"/>
<path class="st0" d="M69.3,21.3h0.6c1.1-1.8,2.6-3.2,4.4-4.2c2-1.1,4.2-1.6,6.4-1.5c2,0,4,0.3,5.8,1.1c1.6,0.7,3,1.7,4.1,3
	c1.1,1.4,1.9,3,2.4,4.7c0.6,2,0.8,4.1,0.8,6.1v21.3h-9.4V31.7c0-2.5-0.6-4.4-1.7-5.6c-1.3-1.3-3.1-2-4.9-1.8c-1.2,0-2.4,0.3-3.4,0.8
	c-1,0.6-1.8,1.3-2.5,2.3c-0.7,1-1.3,2.1-1.6,3.3c-0.4,1.3-0.5,2.6-0.5,4v17.2h-9.4V16.8h8.8L69.3,21.3z"/>
<path class="st0" d="M118.2,15.6c2.6,0,5.1,0.4,7.5,1.4c4.5,1.8,8,5.3,9.7,9.8c1.9,4.8,1.9,10.2,0,15c-1.8,4.5-5.3,8-9.7,9.8
	c-4.8,1.9-10.2,1.9-15,0c-4.5-1.8-8-5.3-9.7-9.7c-1.8-4.8-1.8-10.2,0-15c1.8-4.5,5.3-8,9.8-9.8C113.1,16.1,115.6,15.6,118.2,15.6z
	 M118.2,44.3c1.2,0,2.4-0.2,3.5-0.7c1.1-0.5,2.1-1.1,3-2c0.9-0.9,1.6-2,2-3.2c1-2.7,1-5.7,0-8.4c-0.4-1.2-1.1-2.2-2-3.2
	c-0.9-0.9-1.9-1.5-3-2c-1.1-0.4-2.3-0.7-3.5-0.7c-1.2,0-2.4,0.2-3.5,0.7c-1.1,0.5-2.1,1.1-2.9,2c-0.9,0.9-1.6,2-2,3.2
	c-1,2.7-1,5.7,0,8.4c0.4,1.2,1.1,2.2,2,3.2c0.8,0.9,1.8,1.5,2.9,2C115.8,44.1,117,44.3,118.2,44.3z"/>
<path class="st0" d="M138.4,16.8h10.7l8.7,22.4h0.5l8.8-22.4h10.6l-15.1,35.1h-9.2L138.4,16.8z"/>
<path class="st0" d="M203,48.1h-0.6c-1.1,1.4-2.5,2.5-4,3.4c-1.8,1-3.9,1.5-6,1.4c-1.7,0-3.5-0.3-5.1-0.9c-1.5-0.6-2.9-1.4-4.1-2.4
	c-1.2-1-2.2-2.3-2.8-3.8c-0.7-1.5-1-3.2-1-4.9c0-1.7,0.3-3.4,1.1-4.9c0.7-1.5,1.7-2.7,3-3.8c1.3-1.1,2.9-1.9,4.5-2.4
	c1.8-0.6,3.8-0.8,5.7-0.8c1.9,0,3.8,0.1,5.7,0.5c1.2,0.3,2.5,0.6,3.6,1v-1c0-1.8-0.8-3.5-2.2-4.6c-1.6-1.2-3.5-1.9-5.5-1.8
	c-3.2,0-6.3,1.5-8.3,4.1l-6.8-4.6c3.7-4.7,8.8-7,15.3-7c5.4,0,9.6,1.3,12.5,3.8c2.9,2.6,4.3,6.3,4.3,11.3v21H203V48.1z M203,37.6
	c-1.1-0.5-2.2-0.9-3.4-1.2c-1.3-0.3-2.5-0.5-3.8-0.5c-1.9-0.1-3.7,0.4-5.2,1.5c-1.1,0.8-1.8,2.2-1.8,3.6c0,1.4,0.6,2.7,1.8,3.4
	c1.2,0.9,2.6,1.3,4,1.3c2.3,0,4.5-0.9,6.1-2.5C202.1,41.8,203,39.7,203,37.6L203,37.6z"/>
<path class="st0" d="M222.8,24.8h-6.2v-8h6.2V6h9.4v10.8h8.6v8h-8.6v14c0,0.8,0.1,1.6,0.2,2.3c0.2,0.7,0.5,1.3,1,1.8
	c0.7,0.8,1.8,1.2,2.9,1.2c1.2,0.1,2.3-0.3,3.3-0.9l2.6,8.2c-1.1,0.5-2.3,0.9-3.5,1.2c-1.4,0.3-2.8,0.4-4.2,0.4
	c-1.6,0-3.2-0.3-4.8-0.8c-1.3-0.5-2.5-1.3-3.5-2.3c-2.2-2.2-3.4-5.3-3.4-9.4L222.8,24.8z"/>
<path class="st0" d="M280.6,43.4c-1.6,2.8-3.8,5.2-6.6,7c-3,1.8-6.5,2.7-10,2.6c-2.5,0-5.1-0.5-7.4-1.4c-4.5-1.8-8-5.3-9.8-9.8
	c-1-2.4-1.4-4.9-1.4-7.5c0-2.5,0.4-4.9,1.4-7.2c1.7-4.5,5.2-8.1,9.6-10c2.3-1,4.8-1.5,7.3-1.5c2.6,0,5.1,0.4,7.5,1.4
	c2.1,0.9,4,2.2,5.5,3.9c1.5,1.7,2.6,3.7,3.3,5.8c0.8,2.4,1.2,4.8,1.2,7.3v0.9c0,0.3-0.1,0.5-0.1,0.8c-0.1,0.3-0.1,0.5-0.1,0.8h-26.4
	c0.1,1.3,0.5,2.5,1.2,3.7c0.6,1,1.3,1.9,2.2,2.6c0.9,0.7,1.8,1.2,2.9,1.5c1,0.3,2.1,0.5,3.2,0.5c1.9,0.1,3.8-0.4,5.3-1.5
	c1.4-1,2.5-2.2,3.3-3.7L280.6,43.4z M272,29.8c-0.1-0.7-0.3-1.4-0.6-2.1c-0.4-0.8-0.9-1.5-1.6-2.2c-0.7-0.7-1.6-1.3-2.6-1.7
	c-1.2-0.5-2.4-0.7-3.7-0.7c-1.9,0-3.8,0.6-5.3,1.7c-1.6,1.2-2.7,2.9-3.2,4.8L272,29.8z"/>
<path class="st0" d="M1.4,69.7h9.4v15.4l-0.6,5h0.6c1-1.6,2.4-2.9,4-3.8c2.1-1.1,4.4-1.7,6.7-1.6c2.2,0,4.4,0.5,6.4,1.4
	c2,0.9,3.8,2.2,5.4,3.9c1.6,1.7,2.9,3.7,3.7,5.9c1.8,4.8,1.8,10.2,0,15c-0.8,2.2-2.1,4.2-3.7,5.9c-1.5,1.6-3.3,2.9-5.4,3.9
	c-2,0.9-4.2,1.4-6.4,1.4c-2.3,0.1-4.7-0.5-6.7-1.6c-1.6-0.9-3-2.2-4-3.8h-0.6v4.2H1.4V69.7z M19.6,113.5c1.2,0,2.4-0.2,3.6-0.7
	c1.1-0.5,2.1-1.1,3-2c0.9-0.9,1.6-2,2.1-3.1c1.1-2.7,1.1-5.6,0-8.3c-0.5-1.2-1.2-2.2-2.1-3.1c-0.9-0.9-1.9-1.5-3-2
	c-1.1-0.5-2.3-0.7-3.6-0.7c-1.2,0-2.4,0.2-3.6,0.7c-1.1,0.5-2.1,1.1-3,2c-0.9,0.9-1.6,2-2.1,3.1c-1.1,2.7-1.1,5.7,0,8.4
	c0.5,1.2,1.2,2.2,2.1,3.1c0.9,0.9,1.9,1.5,3,2C17.1,113.3,18.3,113.5,19.6,113.5L19.6,113.5z"/>
<path class="st0" d="M77.6,112.5c-1.6,2.8-3.8,5.2-6.6,7c-3,1.8-6.5,2.7-10.1,2.6c-2.5,0-5.1-0.5-7.4-1.4c-4.5-1.8-8-5.3-9.8-9.8
	c-1-2.4-1.4-4.9-1.4-7.5c0-2.5,0.4-4.9,1.4-7.2c1.7-4.5,5.2-8.1,9.6-10c2.3-1,4.8-1.5,7.3-1.5c2.6,0,5.1,0.4,7.5,1.4
	c2.1,0.9,4,2.2,5.5,3.9c1.5,1.7,2.6,3.7,3.4,5.8c0.8,2.4,1.2,4.8,1.1,7.3v0.9c0,0.3-0.1,0.5-0.1,0.8c-0.1,0.3-0.1,0.5-0.1,0.8H51.6
	c0.1,1.3,0.5,2.6,1.2,3.7c0.6,1,1.3,1.9,2.2,2.6c0.9,0.7,1.8,1.2,2.9,1.5c1,0.3,2.1,0.5,3.2,0.5c1.9,0.1,3.8-0.4,5.3-1.5
	c1.4-1,2.5-2.2,3.3-3.7L77.6,112.5z M69.1,98.9c-0.1-0.7-0.3-1.4-0.6-2.1c-0.4-0.8-0.9-1.5-1.6-2.1c-0.8-0.7-1.6-1.3-2.6-1.6
	c-1.2-0.5-2.4-0.7-3.7-0.6c-1.9,0-3.8,0.6-5.3,1.7c-1.6,1.2-2.7,2.9-3.2,4.8L69.1,98.9z"/>
<path class="st0" d="M84.2,85.9H93v4.8h0.6c0.4-0.9,1-1.7,1.7-2.4c0.7-0.7,1.5-1.3,2.4-1.9c0.9-0.5,1.9-1,2.9-1.3c1-0.3,2-0.5,3-0.5
	c1.1,0,2.2,0.1,3.2,0.4c0.8,0.2,1.6,0.6,2.3,1l-2.5,8.4c-0.6-0.3-1.2-0.5-1.9-0.7c-0.8-0.2-1.7-0.3-2.5-0.2c-1.2,0-2.4,0.2-3.5,0.8
	c-1,0.5-2,1.2-2.7,2.1c-0.8,1-1.3,2-1.7,3.2c-0.4,1.3-0.6,2.6-0.6,4v17.3h-9.4L84.2,85.9z"/>
<path class="st0" d="M113.7,69.7h9.4v27.9h0.4l11.8-11.8h11.6v0.6l-13,12.7l14.1,21.3v0.6h-11.1l-9.6-15.4l-4.2,4.1V121h-9.4
	L113.7,69.7z"/>
<path class="st0" d="M183.8,112.5c-1.6,2.8-3.8,5.2-6.6,7c-3,1.8-6.5,2.8-10.1,2.6c-2.5,0-5.1-0.5-7.4-1.4c-4.5-1.8-8-5.3-9.8-9.8
	c-1-2.4-1.4-4.9-1.4-7.5c0-2.5,0.4-4.9,1.4-7.2c1.7-4.5,5.2-8.1,9.6-10c2.3-1,4.8-1.5,7.3-1.5c2.6,0,5.1,0.4,7.5,1.4
	c2.1,0.9,4,2.2,5.5,3.9c1.5,1.7,2.7,3.7,3.4,5.8c0.8,2.4,1.2,4.8,1.1,7.3v0.9c0,0.3-0.1,0.5-0.1,0.8c-0.1,0.3-0.1,0.5-0.1,0.8h-26.4
	c0.1,1.3,0.5,2.5,1.2,3.7c0.6,1,1.3,1.9,2.2,2.6c0.9,0.7,1.8,1.2,2.9,1.5c1,0.3,2.1,0.5,3.2,0.5c1.9,0.1,3.8-0.4,5.3-1.5
	c1.4-1,2.5-2.2,3.3-3.7L183.8,112.5z M175.3,98.9c-0.1-0.7-0.3-1.4-0.6-2.1c-0.4-0.8-0.9-1.5-1.6-2.1c-0.7-0.7-1.6-1.3-2.6-1.6
	c-1.2-0.5-2.4-0.7-3.7-0.6c-1.9,0-3.8,0.6-5.3,1.7c-1.6,1.2-2.7,2.9-3.2,4.8L175.3,98.9z"/>
<path class="st0" d="M190.4,121V69.7h9.4V121L190.4,121z"/>
<path class="st0" d="M240.7,112.5c-1.6,2.8-3.8,5.2-6.6,7c-3,1.8-6.5,2.8-10.1,2.6c-2.5,0-5.1-0.5-7.4-1.4c-4.5-1.8-8-5.3-9.8-9.8
	c-1-2.4-1.4-4.9-1.4-7.5c0-2.5,0.4-4.9,1.4-7.2c1.7-4.5,5.2-8.1,9.6-10c2.3-1,4.8-1.5,7.3-1.5c2.6,0,5.1,0.4,7.5,1.4
	c2.1,0.9,4,2.2,5.5,3.9c1.5,1.7,2.7,3.7,3.4,5.8c0.8,2.4,1.2,4.8,1.1,7.3v0.9c0,0.3-0.1,0.5-0.1,0.8c-0.1,0.3-0.1,0.5-0.1,0.8h-26.4
	c0.1,1.3,0.5,2.5,1.2,3.7c0.6,1,1.3,1.9,2.2,2.6c0.9,0.7,1.8,1.2,2.9,1.5c1,0.3,2.1,0.5,3.2,0.5c1.9,0.1,3.8-0.4,5.3-1.5
	c1.4-1,2.5-2.2,3.3-3.7L240.7,112.5z M232.2,98.9c-0.1-0.7-0.3-1.4-0.6-2.1c-0.4-0.8-0.9-1.5-1.6-2.1c-0.7-0.7-1.6-1.3-2.6-1.6
	c-1.2-0.5-2.4-0.7-3.7-0.6c-1.9,0-3.8,0.6-5.3,1.7c-1.6,1.2-2.7,2.9-3.2,4.8L232.2,98.9z"/>
<path class="st0" d="M257.6,119.2l-14.8-33.4h10.7l8.9,21.3h0.5l8.5-21.3H282l-22,50.6h-10.1L257.6,119.2z"/>
<line class="st1" x1="1.4" y1="49.8" x2="10.7" y2="49.8"/>
<line class="st1" x1="10.7" y1="74.8" x2="1.4" y2="74.8"/>
</svg>
